<svg width="100" height="100" viewBox="0 0 100 100" fill="none" xmlns="http://www.w3.org/2000/svg">
<path d="M36.2815 18C21.1111 32.6963 14 48.3407 14 62.3259C14 73.7037 22.5333 82 31.0667 82C38.6519 82 44.8148 75.837 44.8148 68.2519C44.8148 58.5333 37.7037 53.5555 27.2741 53.5555C27.2741 41.9407 30.8296 35.0667 41.9704 23.6889L36.2815 18ZM75.8667 18C60.6963 32.6963 53.5852 48.3407 53.5852 62.3259C53.5852 73.7037 62.1185 82 70.6519 82C78.237 82 84.4 75.837 84.4 68.2519C84.4 58.5333 77.2889 53.5555 66.8593 53.5555C66.8593 41.9407 70.4148 35.0667 81.5556 23.6889L75.8667 18Z" fill="black"/>
</svg>
