<svg width="47" height="47" viewBox="0 0 47 47" fill="none" xmlns="http://www.w3.org/2000/svg">
<g clip-path="url(#clip0_674_2141)">
<rect width="47" height="47" rx="9" fill="white"/>
<path d="M11.5455 13.2727H16.0909V17.8182H11.5455V13.2727ZM11.5455 17.8182H16.0909V22.3636H11.5455V17.8182ZM11.5455 22.3636H16.0909V26.9091H11.5455V22.3636ZM11.5455 26.9091H16.0909V31.4545H11.5455V26.9091ZM7 31.4545H11.5455V36H7V31.4545ZM21.623 13.2727H26.1685V17.8182H21.623V13.2727ZM21.623 17.8182H26.1685V22.3636H21.623V17.8182ZM21.623 22.3636H26.1685V26.9091H21.623V22.3636ZM21.623 26.9091H26.1685V31.4545H21.623V26.9091ZM21.623 31.4545H26.1685V36H21.623V31.4545ZM30.714 13.2727H35.2594V17.8182H30.714V13.2727ZM30.714 17.8182H35.2594V22.3636H30.714V17.8182ZM26.1685 22.3636H30.714V26.9091H26.1685V22.3636ZM30.714 26.9091H35.2594V31.4545H30.714V26.9091ZM30.714 31.4545H35.2594V36H30.714V31.4545Z" fill="black"/>
</g>
<defs>
<clipPath id="clip0_674_2141">
<rect width="47" height="47" rx="9" fill="white"/>
</clipPath>
</defs>
</svg>
