<svg width="159" height="97" viewBox="0 0 159 97" fill="none" xmlns="http://www.w3.org/2000/svg">
<line x1="17.5551" y1="4.14505" x2="3.04145" y2="42.1687" stroke="#699AE3" stroke-width="1.14557"/>
<line x1="154.509" y1="56.4201" x2="139.995" y2="94.4437" stroke="#699AE3" stroke-width="1.14557"/>
<line x1="6.79663" y1="33.5075" x2="143.125" y2="85.5444" stroke="#699AE3" stroke-width="0.992669"/>
<line x1="3.63785" y1="41.7832" x2="139.966" y2="93.8201" stroke="#699AE3" stroke-width="1.14557"/>
<line x1="17.7975" y1="4.68655" x2="154.126" y2="56.7234" stroke="#699AE3" stroke-width="1.14557"/>
<path d="M25.8977 39.6953C25.3738 39.212 25.1121 38.6729 25.1125 38.078C25.1129 37.4832 25.2387 36.8937 25.49 36.3096C25.766 35.7349 26.1162 35.1886 26.5406 34.6706C26.9744 34.1278 27.3752 33.6716 27.743 33.302C28.2605 32.7628 28.8151 32.2378 29.4067 31.727C29.9984 31.2161 30.5977 30.7224 31.2047 30.2457C28.8305 29.3395 26.428 28.5075 23.9972 27.7496C23.1888 28.2344 22.3804 28.7192 21.572 29.204C20.7978 29.6735 20.0189 30.1553 19.2352 30.6496C18.4268 31.1344 17.5843 31.6344 16.7075 32.1498C15.865 32.6499 15.0824 33.2154 14.3599 33.8463C14.3514 34.2397 14.2935 34.6143 14.1861 34.9699C14.0692 35.3503 13.8305 35.6417 13.4699 35.8441C13.2212 35.9759 12.9733 35.9945 12.726 35.9001C12.4692 35.8305 12.3091 35.656 12.2457 35.3768C12.1517 35.0293 12.2232 34.7307 12.4601 34.4811C12.7217 34.241 12.9616 34.0209 13.1797 33.8208L13.5067 33.5206C13.5058 33.1519 13.4783 32.8156 13.4243 32.5116C13.3798 32.183 13.347 31.9721 13.3258 31.879C13.1684 31.2522 12.9768 30.6408 12.751 30.0446C12.5347 29.4236 12.2965 28.8227 12.0366 28.2418C11.7766 27.6609 11.5072 27.1048 11.2284 26.5733C10.9743 26.0513 10.7079 25.5246 10.429 24.9932C10.3337 24.8718 10.2678 24.7475 10.2314 24.6202C10.2044 24.4682 10.281 24.3417 10.4613 24.2405L10.6893 24.2C11.1983 24.0543 11.7378 23.9769 12.3079 23.9678C12.8875 23.934 13.4606 23.9544 14.0271 24.029C14.6278 24.0883 15.2067 24.1676 15.7639 24.2669C16.321 24.3662 16.8657 24.4608 17.3981 24.5507C18.5865 24.7776 19.7654 25.0293 20.935 25.3057C22.1045 25.5821 23.2817 25.8756 24.4665 26.1862L28.3976 23.9041C29.6444 23.1617 30.8741 22.4268 32.0866 21.6997C33.3087 20.9477 34.5154 20.1617 35.7069 19.3414C36.2324 19.0037 36.7333 18.6565 37.2094 18.2999C37.7197 17.928 38.2053 17.5467 38.6661 17.1559C38.8311 17.0205 38.9808 16.851 39.1152 16.6473C39.2838 16.4283 39.4536 16.2806 39.6244 16.2041C39.7269 16.1583 39.8324 16.1418 39.9407 16.1549C40.0491 16.1679 40.1356 16.2009 40.2004 16.254C40.2993 16.2918 40.347 16.3525 40.3434 16.4361C40.3645 16.5292 40.3268 16.6281 40.2301 16.7329C39.4038 17.6358 38.4974 18.4515 37.511 19.18C36.5493 19.918 35.56 20.617 34.5429 21.2772C33.3268 22.088 32.0906 22.877 30.8344 23.6442C29.5782 24.4114 28.3096 25.1739 27.0287 25.9317C26.839 26.0576 26.6539 26.1711 26.4737 26.2723C26.2934 26.3735 26.1083 26.4871 25.9186 26.613C25.9681 26.6319 26.0052 26.646 26.0299 26.6555C26.0641 26.6402 26.1059 26.642 26.1554 26.6608C27.3307 26.9961 28.4843 27.3515 29.6161 27.7268C30.782 28.0868 31.9556 28.464 33.1368 28.8582L34.779 27.7849C36.0977 26.9283 37.4099 26.1258 38.7155 25.3774C40.0553 24.6138 41.4228 23.8891 42.818 23.2033C43.4425 22.9033 44.0499 22.611 44.6402 22.3263C45.2553 22.0511 45.8828 21.7805 46.5226 21.5147L48.3111 20.8374C48.4136 20.7915 48.555 20.718 48.7353 20.6168C48.9404 20.5251 49.1141 20.4781 49.2567 20.4758C49.5112 20.4029 49.6796 20.4814 49.7619 20.7111C49.8536 20.9162 49.7875 21.0893 49.5636 21.2305C49.3739 21.3564 49.1889 21.47 49.0086 21.5711C48.8283 21.6723 48.6433 21.7859 48.4535 21.9118C47.8443 22.2459 47.2304 22.5924 46.6117 22.9513C46.0178 23.3196 45.4162 23.6708 44.807 24.005C43.4919 24.778 42.1815 25.5387 40.8759 26.2871C39.6044 27.0201 38.3234 27.7778 37.0331 28.5603L35.2142 29.6511C36.1445 30.0346 37.0418 30.5046 37.9061 31.0611C38.1592 31.2144 38.3535 31.3736 38.4888 31.5386C38.6336 31.6788 38.62 31.9003 38.4478 32.2029C38.3758 32.3171 38.2868 32.439 38.1807 32.5685C38.1088 32.6827 37.9798 32.7609 37.7936 32.8032C37.6416 32.8302 37.4667 32.806 37.2689 32.7304C37.071 32.6549 36.8655 32.5623 36.6524 32.4526C36.4487 32.3182 36.2403 32.1962 36.0272 32.0865C35.8482 31.9615 35.6845 31.8707 35.5361 31.814C35.1404 31.663 34.7447 31.512 34.3491 31.3609C33.9781 31.2193 33.6024 31.0901 33.222 30.9732C32.5845 31.3816 31.9622 31.8241 31.3553 32.3007C30.7577 32.7527 30.1679 33.2217 29.5856 33.7078C29.0906 34.1139 28.5986 34.5494 28.1094 35.0144C27.6297 35.4546 27.1976 35.9556 26.8133 36.5172C26.6352 36.7609 26.4772 37.0264 26.3392 37.3138C26.2106 37.5764 26.1439 37.8626 26.139 38.1724C26.1377 38.3985 26.2323 38.633 26.423 38.8758C26.6137 39.1186 26.6712 39.3389 26.5957 39.5367C26.4141 39.8641 26.1814 39.9169 25.8977 39.6953ZM11.6147 24.8932C11.5558 24.8991 11.4969 24.9049 11.438 24.9108C11.3791 24.9166 11.3155 24.9349 11.2471 24.9654C11.8848 26.1155 12.4742 27.318 13.0152 28.5729C13.5904 29.8125 13.9966 31.0867 14.2337 32.3956L14.3005 32.8886C15.6016 31.8552 16.9457 30.8948 18.3327 30.0076C19.7292 29.0956 21.1457 28.2054 22.5822 27.337C21.3173 26.9392 20.0554 26.5709 18.7964 26.232C17.5621 25.9025 16.3013 25.6054 15.014 25.3407C14.4663 25.2167 13.9092 25.1174 13.3427 25.0428C12.7855 24.9435 12.2096 24.8936 11.6147 24.8932ZM13.0604 35.1353C13.2618 35.1272 13.3898 34.9777 13.4441 34.6867C13.3663 34.7421 13.3009 34.8021 13.2479 34.8668C13.2101 34.9658 13.1476 35.0552 13.0604 35.1353ZM32.0422 41.0632C32.2752 41.4921 32.6237 41.7668 33.0877 41.8872C33.5765 42.0171 34.0983 42.0605 34.6531 42.0172C35.208 41.974 35.7523 41.8843 36.286 41.748C36.8291 41.5869 37.2792 41.4471 37.6362 41.3283C38.6977 40.9968 39.7287 40.597 40.7291 40.1288C40.8905 40.0771 41.0613 40.0007 41.2416 39.8995C41.4314 39.7736 41.6069 39.6847 41.7684 39.633C42.0228 39.5601 42.196 39.6262 42.2877 39.8313C42.3794 40.0363 42.3257 40.2141 42.1266 40.3648C41.8402 40.5954 41.433 40.8084 40.9052 41.0036C40.4021 41.2082 39.972 41.3699 39.615 41.4886C39.0094 41.7392 38.3885 41.9555 37.7523 42.1377C37.1408 42.3293 36.5016 42.482 35.8348 42.5958C35.472 42.6556 35.055 42.709 34.5837 42.7558C34.1467 42.7873 33.6991 42.7723 33.2409 42.7107C32.798 42.6833 32.3664 42.5894 31.9459 42.4289C31.5502 42.2779 31.217 42.0374 30.9463 41.7074C30.4755 41.1593 30.3068 40.5991 30.4403 40.0267C30.5491 39.4449 30.8157 38.8949 31.2401 38.3769C31.6645 37.8589 32.1613 37.411 32.7305 37.0333C33.3091 36.6308 33.8129 36.3131 34.2418 36.0801C34.6613 35.8719 35.1909 35.6349 35.8307 35.3691C36.4705 35.1033 37.1286 34.9011 37.8048 34.7625C38.4905 34.5993 39.1384 34.5349 39.7485 34.5694C40.3929 34.5887 40.9199 34.804 41.3295 35.2154C41.705 35.6421 41.7507 36.042 41.4665 36.4152C41.1919 36.7637 40.7717 37.085 40.2061 37.3792C39.6747 37.658 39.1079 37.8808 38.5059 38.0477C37.9286 38.224 37.525 38.3533 37.2953 38.4356C36.7274 38.5872 36.1395 38.717 35.5316 38.825C34.9485 38.9424 34.3547 39.0133 33.7504 39.0376C33.6079 39.0399 33.4312 39.0574 33.2203 39.0903C33.0436 39.1078 32.8593 39.1083 32.6673 39.0917C32.3867 39.3813 32.1804 39.6992 32.0482 40.0454C31.9255 40.3669 31.9159 40.6891 32.0193 41.0119C32.0099 41.0366 32.0175 41.0537 32.0422 41.0632ZM34.6844 37.4816C34.5041 37.5827 34.302 37.7039 34.0781 37.8452C33.8789 37.9958 33.675 38.1588 33.4664 38.3342C34.1849 38.3818 34.9165 38.321 35.6611 38.1519C36.4056 37.9827 37.1007 37.7947 37.7464 37.5878C37.8736 37.5514 38.1594 37.4338 38.6036 37.235C39.0725 37.0456 39.5044 36.8421 39.8991 36.6245C40.3281 36.3915 40.6097 36.1732 40.7442 35.9695C40.8786 35.7658 40.6796 35.619 40.1472 35.5291C39.689 35.4676 39.2149 35.485 38.7248 35.5812C38.2347 35.6775 37.7505 35.8327 37.2721 36.0467C36.8032 36.2361 36.3495 36.4596 35.9111 36.7173C35.4728 36.975 35.0638 37.2297 34.6844 37.4816ZM32.0422 41.0632C32.0175 41.0537 32.0099 41.0366 32.0193 41.0119L32.0422 41.0632ZM50.2034 43.4477C49.1441 43.9217 48.0601 44.3863 46.9513 44.8414C45.8767 45.2813 44.7657 45.5939 43.6183 45.7793C43.0198 45.8625 42.3926 45.8356 41.7366 45.6985C41.0805 45.5615 40.6367 45.1654 40.4051 44.5103C40.2769 44.178 40.2418 43.8246 40.2998 43.4501C40.3577 43.0755 40.4651 42.7198 40.622 42.383C40.7884 42.0215 40.9871 41.6865 41.2181 41.378C41.4245 41.0601 41.6214 40.767 41.8089 40.4985C42.6896 39.3046 43.7075 38.234 44.8625 37.2865C46.0422 36.3484 47.2849 35.5052 48.5906 34.7569C49.921 34.018 51.2896 33.3646 52.6964 32.7965C54.1127 32.2038 55.5054 31.6728 56.8745 31.2037C57.1973 31.1003 57.6986 30.9375 58.3785 30.7153C59.0583 30.4931 59.7487 30.3174 60.4496 30.1883C61.1753 30.0686 61.8338 30.0508 62.4251 30.1348C63.0411 30.2283 63.4467 30.539 63.6419 31.0668C63.7148 31.3213 63.6746 31.5751 63.5213 31.8283C63.368 32.0814 63.1528 32.311 62.8759 32.5169C62.6237 32.7323 62.3514 32.9259 62.0592 33.0977C61.7764 33.2448 61.5572 33.3736 61.4016 33.4843C60.7641 33.8926 60.0942 34.2744 59.3919 34.6297C58.699 34.9602 58.0109 35.2784 57.3275 35.5842C54.9697 36.6393 52.5937 37.6308 50.1995 38.5586C47.8053 39.4864 45.3958 40.3801 42.971 41.2396C42.7247 41.5139 42.483 41.7758 42.2461 42.0254C42.0339 42.2844 41.8417 42.5652 41.6695 42.8679C41.3723 43.3495 41.2508 43.7422 41.3047 44.0462C41.3929 44.3348 41.5636 44.5558 41.8167 44.7091C42.0699 44.8624 42.3885 44.9557 42.7724 44.9889C43.1812 45.0316 43.584 45.0153 43.9811 44.9402C44.7751 44.79 45.5509 44.5761 46.3085 44.2986C47.1003 44.0058 47.8768 43.6788 48.638 43.3177C48.8088 43.2412 49.0062 43.1324 49.2301 42.9912C49.4787 42.8594 49.6838 42.7677 49.8452 42.716C50.0997 42.6431 50.2851 42.7139 50.4016 42.9284C50.5181 43.1428 50.452 43.3159 50.2034 43.4477ZM44.6206 39.7017L49.6841 37.6819C52.0195 36.7599 54.3489 35.779 56.6725 34.7392L60.0466 33.1371C60.1927 33.0512 60.4025 32.947 60.6758 32.8247C60.9834 32.6871 61.2786 32.5448 61.5614 32.3977C61.8783 32.2354 62.1582 32.0588 62.401 31.8682C62.6438 31.6775 62.7858 31.4909 62.8272 31.3083C62.7107 31.0939 62.4728 30.9747 62.1136 30.9509C61.7885 30.9119 61.4274 30.9299 61.0304 31.005C60.6676 31.0649 60.3124 31.1418 59.9648 31.2358C59.6173 31.3298 59.3628 31.4027 59.2014 31.4544C58.3354 31.7189 57.48 32.0299 56.6352 32.3874C55.7903 32.745 54.9532 33.1196 54.1236 33.5113C52.514 34.3136 50.9521 35.1766 49.4378 36.1003C47.9483 37.0335 46.5293 38.0785 45.181 39.2356L44.6206 39.7017ZM58.2631 46.5241C57.2038 46.9981 56.1198 47.4627 55.0111 47.9179C53.9365 48.3577 52.8255 48.6703 51.678 48.8557C51.0796 48.9389 50.4523 48.912 49.7963 48.7749C49.1403 48.6379 48.6964 48.2418 48.4648 47.5867C48.3366 47.2544 48.3015 46.901 48.3595 46.5265C48.4175 46.1519 48.5249 45.7962 48.6818 45.4595C48.8481 45.0979 49.0468 44.7629 49.2779 44.4545C49.4842 44.1366 49.6811 43.8434 49.8686 43.5749C50.7493 42.3811 51.7672 41.3104 52.9222 40.3629C54.1019 39.4248 55.3446 38.5816 56.6503 37.8333C57.9807 37.0944 59.3493 36.441 60.7562 35.8729C62.1724 35.2802 63.5651 34.7492 64.9342 34.2801C65.257 34.1767 65.7584 34.0139 66.4382 33.7917C67.118 33.5695 67.8084 33.3938 68.5094 33.2647C69.2351 33.1451 69.8936 33.1272 70.4848 33.2112C71.1008 33.3047 71.5064 33.6154 71.7016 34.1432C71.7745 34.3977 71.7343 34.6515 71.581 34.9047C71.4277 35.1578 71.2126 35.3874 70.9356 35.5934C70.6834 35.8088 70.4112 36.0024 70.1189 36.1741C69.8361 36.3212 69.6169 36.45 69.4614 36.5607C68.8238 36.969 68.1539 37.3508 67.4516 37.7061C66.7588 38.0366 66.0706 38.3548 65.3872 38.6607C63.0294 39.7157 60.6535 40.7072 58.2593 41.635C55.865 42.5629 53.4556 43.4565 51.0308 44.316C50.7844 44.5903 50.5427 44.8523 50.3058 45.1018C50.0936 45.3608 49.9014 45.6417 49.7292 45.9443C49.4321 46.4259 49.3105 46.8186 49.3645 47.1226C49.4526 47.4112 49.6233 47.6322 49.8765 47.7855C50.1296 47.9388 50.4482 48.0321 50.8322 48.0653C51.2409 48.108 51.6438 48.0918 52.0408 48.0166C52.8348 47.8664 53.6107 47.6525 54.3683 47.375C55.16 47.0822 55.9365 46.7552 56.6977 46.3941C56.8686 46.3177 57.0659 46.2088 57.2898 46.0676C57.5385 45.9358 57.7435 45.8441 57.9049 45.7924C58.1594 45.7195 58.3449 45.7903 58.4614 46.0048C58.5778 46.2192 58.5118 46.3923 58.2631 46.5241ZM52.6803 42.7781L57.7439 40.7583C60.0792 39.8363 62.4086 38.8554 64.7322 37.8156L68.1064 36.2135C68.2525 36.1276 68.4622 36.0235 68.7356 35.9011C69.0431 35.7635 69.3383 35.6212 69.6211 35.4741C69.9381 35.3118 70.2179 35.1353 70.4607 34.9446C70.7035 34.7539 70.8456 34.5673 70.8869 34.3848C70.7704 34.1703 70.5326 34.0512 70.1733 34.0274C69.8482 33.9883 69.4872 34.0063 69.0902 34.0814C68.7273 34.1413 68.3721 34.2182 68.0245 34.3122C67.677 34.4062 67.4225 34.4791 67.2611 34.5308C66.3951 34.7953 65.5397 35.1063 64.6949 35.4638C63.8501 35.8214 63.0129 36.196 62.1834 36.5877C60.5738 37.39 59.0118 38.253 57.4975 39.1767C56.008 40.1099 54.5891 41.155 53.2407 42.312L52.6803 42.7781ZM65.0591 44.7831C65.1239 44.8361 65.1868 44.931 65.248 45.0677C65.3905 45.0654 65.516 45.0708 65.6243 45.0838C65.7574 45.1063 65.8811 45.1535 65.9953 45.2254C66.4121 45.4695 66.5792 45.7741 66.4965 46.1392C66.4138 46.5043 66.2009 46.8764 65.8579 47.2555C65.5149 47.6346 65.0882 48.0101 64.5779 48.382C64.0676 48.7539 63.6057 49.0734 63.192 49.3405C63.2815 49.403 63.3586 49.4608 63.4234 49.5138C63.5223 49.5516 63.6336 49.5941 63.7572 49.6413C64.0293 49.7451 64.3078 49.7948 64.5929 49.7902C64.9121 49.7704 65.2114 49.7288 65.4906 49.6654C65.7356 49.6172 65.9825 49.5273 66.2311 49.3955C66.5045 49.2732 66.7437 49.1661 66.9487 49.0744C67.1879 48.9674 67.3381 48.9822 67.3992 49.1189C67.4946 49.2403 67.4408 49.4181 67.2381 49.6524C67.1225 49.8066 66.8768 49.9678 66.501 50.136C66.1593 50.2889 65.8953 50.3865 65.7092 50.4288C65.1755 50.5651 64.6206 50.6083 64.0447 50.5585C63.4781 50.4839 62.99 50.2409 62.5803 49.8295C62.5309 49.8107 62.5109 49.7889 62.5203 49.7641L62.1986 49.9388C61.8475 50.1165 61.4062 50.3447 60.8747 50.6236C60.3527 50.8776 59.8031 51.0929 59.2258 51.2692C58.6732 51.4549 58.1289 51.5447 57.593 51.5384C57.0476 51.5569 56.59 51.3823 56.2204 51.0145C55.7213 50.5407 55.529 50.0423 55.6436 49.5193C55.7429 48.9622 56 48.437 56.415 47.9437C56.8052 47.441 57.2602 46.9913 57.78 46.5947C58.2997 46.1981 58.7399 45.8986 59.1004 45.6962C59.7438 45.3468 60.4272 45.0409 61.1507 44.7787C61.8836 44.4918 62.6234 44.335 63.3702 44.3084C63.6648 44.2792 63.9527 44.3041 64.2342 44.3832C64.5499 44.447 64.8248 44.5803 65.0591 44.7831ZM62.7291 46.6562C62.8882 46.462 63.0986 46.2448 63.3603 46.0047C63.6314 45.7398 63.9254 45.5262 64.2424 45.3638C63.9268 45.3 63.5828 45.3104 63.2105 45.395C62.8724 45.4643 62.5154 45.583 62.1395 45.7512C61.7978 45.9041 61.4638 46.0741 61.1373 46.2612C60.8451 46.433 60.5917 46.5771 60.3773 46.6936C59.9483 46.9265 59.53 47.206 59.1222 47.532C58.7239 47.8333 58.3579 48.1612 58.0243 48.5155C57.9713 48.5803 57.8746 48.685 57.7343 48.8298C57.6188 48.9841 57.4985 49.1507 57.3735 49.3296C57.2733 49.518 57.1778 49.6941 57.087 49.8578C57.0209 50.0309 57.0202 50.144 57.085 50.197C57.2473 50.514 57.5376 50.6814 57.9557 50.6994C58.3739 50.7173 58.8251 50.6487 59.3093 50.4935C59.8183 50.3478 60.3214 50.1432 60.8187 49.8796C61.316 49.6161 61.7449 49.3831 62.1055 49.1808C61.9561 48.7554 61.937 48.3231 62.048 47.8838C62.1932 47.4292 62.4202 47.02 62.7291 46.6562ZM63.4427 47.0136C63.1963 47.2879 63.0118 47.5858 62.8891 47.9073C62.7758 48.2041 62.7556 48.4797 62.8284 48.7342C63.0429 48.6177 63.301 48.4612 63.6027 48.2647C63.9385 48.0529 64.2496 47.8317 64.536 47.601C64.8319 47.3455 65.0859 47.0883 65.2981 46.8293C65.5197 46.5456 65.6359 46.2783 65.6467 46.0274C65.6539 45.8601 65.5426 45.8176 65.3128 45.8999C65.1172 45.9669 64.878 46.074 64.5952 46.221C64.3372 46.3775 64.0915 46.5388 63.8581 46.7047C63.6248 46.8706 63.4863 46.9736 63.4427 47.0136ZM91.8745 36.4881C92.1605 36.8523 92.2556 37.2711 92.1599 37.7446C92.0889 38.2275 91.9172 38.7145 91.6448 39.2055C91.3723 39.6965 91.0552 40.1563 90.6932 40.5848C90.3561 41.0228 90.0814 41.3713 89.8692 41.6303C89.0545 42.6511 88.1875 43.6235 87.2681 44.5476C86.3581 45.4469 85.4187 46.3492 84.4499 47.2544C83.4563 48.1502 82.4503 49.0413 81.432 49.9276C80.4231 50.7892 79.3971 51.6584 78.354 52.5353C77.8496 52.9661 77.3452 53.3969 76.8407 53.8277C76.3704 54.2432 75.8907 54.6835 75.4016 55.1484C75.3049 55.2532 75.1428 55.418 74.9153 55.6429C74.6973 55.843 74.4698 56.0678 74.2329 56.3174C73.9959 56.567 73.8008 56.8183 73.6475 57.0715C73.4942 57.3246 73.4481 57.5196 73.5093 57.6562C73.7472 57.7754 74.0305 57.8127 74.3591 57.7681C74.6878 57.7236 75.0259 57.6543 75.3735 57.5603C75.7552 57.451 76.0998 57.3275 76.4074 57.1899C76.7491 57.037 77.0348 56.9194 77.2646 56.8371C78.0222 56.5596 78.7645 56.2479 79.4915 55.9021C80.2185 55.5562 80.9332 55.2057 81.6355 54.8504C83.0742 54.1245 84.4635 53.3798 85.8034 52.6162C87.1679 51.862 88.5296 51.0784 89.8883 50.2653L90.2612 50.0677L90.2754 50.0306C91.3575 48.8286 92.4673 47.6655 93.6048 46.5413C94.7517 45.3924 95.951 44.2918 97.2026 43.2395C97.7943 42.7286 98.3889 42.2473 98.9864 41.7953C99.5934 41.3186 100.243 40.915 100.936 40.5845C101.2 40.4869 101.459 40.4016 101.714 40.3288C101.978 40.2312 102.255 40.2096 102.546 40.2639L102.731 40.3347C102.741 40.31 102.793 40.3583 102.889 40.4797C103.018 40.5858 103.091 40.656 103.106 40.6901C103.207 40.8704 103.23 41.106 103.176 41.397C102.999 42.0094 102.627 42.5757 102.06 43.096C101.503 43.5916 100.981 44.03 100.495 44.4113C99.3651 45.3683 98.1919 46.2522 96.9757 47.063C95.7596 47.8738 94.5187 48.6752 93.253 49.4671L93.0851 49.573L92.6218 50.1187C91.7577 51.1205 90.906 52.1271 90.0666 53.1384C89.2367 54.125 88.385 55.1316 87.5114 56.1582C87.0965 56.6515 86.6691 57.1401 86.2294 57.6239C85.7897 58.1078 85.3577 58.6087 84.9333 59.1267C84.7553 59.3705 84.5772 59.6142 84.3992 59.8579C84.2212 60.1016 84.0555 60.3501 83.9022 60.6032C83.8303 60.7174 83.7642 60.8905 83.704 61.1226C83.6532 61.3298 83.5936 61.4488 83.5253 61.4794C84.001 61.7176 84.5334 61.8075 85.1224 61.749C85.7209 61.6657 86.2822 61.5683 86.8065 61.4568C87.5699 61.2382 88.3057 60.9807 89.0139 60.6843C89.7315 60.3632 90.4461 60.0126 91.1579 59.6326C92.5966 58.9068 93.9753 58.1155 95.294 57.2588C96.6221 56.3774 97.9473 55.4665 99.2696 54.5262C100.489 53.6318 101.684 52.7279 102.855 51.8145C104.05 50.9107 105.209 49.9508 106.334 48.935C106.848 48.4794 107.345 48.0316 107.824 47.5913C108.313 47.1263 108.795 46.6443 109.269 46.1451C109.496 45.9203 109.707 45.7031 109.9 45.4936C110.093 45.284 110.291 45.0621 110.494 44.8278C110.61 44.6736 110.727 44.4775 110.846 44.2397C110.965 44.0018 111.11 43.8446 111.281 43.7682C111.564 43.6211 111.724 43.6112 111.76 43.7385C111.821 43.8751 111.805 44.0671 111.71 44.3144C111.65 44.5465 111.56 44.7814 111.441 45.0193C111.356 45.2418 111.309 45.3655 111.3 45.3902C110.93 45.986 110.529 46.5553 110.095 47.0981C109.695 47.6255 109.259 48.1388 108.785 48.638C107.784 49.701 106.728 50.6863 105.617 51.5937C104.53 52.5106 103.411 53.401 102.259 54.2649C99.8446 56.0632 97.2916 57.6671 94.6002 59.0765C93.2792 59.7907 91.9183 60.4612 90.5173 61.0881C89.1163 61.7151 87.6854 62.1606 86.2245 62.4247C85.7097 62.5115 85.1501 62.5671 84.5458 62.5914C83.9415 62.6158 83.4204 62.4593 82.9824 62.1222C82.7481 61.9194 82.66 61.6307 82.7179 61.2562C82.8006 60.8911 82.9299 60.5154 83.1056 60.1292C83.2908 59.7182 83.4913 59.3414 83.7071 58.9987C83.9324 58.6313 84.0904 58.3658 84.1812 58.2021C84.7449 57.1706 85.344 56.1951 85.9783 55.2755C86.6468 54.3407 87.3524 53.42 88.0951 52.5134C86.2144 53.5806 84.3031 54.5794 82.3613 55.5099C80.4536 56.4251 78.4876 57.2331 76.4634 57.9338C76.2337 58.0161 75.9527 58.1214 75.6204 58.2495C75.2976 58.353 74.9718 58.427 74.6431 58.4715C74.305 58.5408 73.9734 58.5559 73.6483 58.5168C73.3385 58.5119 73.0836 58.4004 72.8835 58.1824C72.6834 57.9643 72.6152 57.6975 72.679 57.3818C72.7334 57.0909 72.8467 56.7941 73.0189 56.4915C73.2158 56.1983 73.4203 55.9222 73.6325 55.6632C73.8695 55.4137 74.0628 55.2041 74.2125 55.0346C75.2641 53.7643 76.3633 52.5546 77.5102 51.4057C78.6665 50.232 79.8305 49.0755 81.0021 47.936C82.1643 46.8212 83.3342 45.7235 84.5116 44.643C85.6891 43.5624 86.8513 42.4476 87.9982 41.2987C88.4968 40.809 89.0001 40.3069 89.5082 39.7925C90.0256 39.2533 90.4689 38.6858 90.838 38.09C90.963 37.9111 91.0414 37.7427 91.0733 37.5848C91.1394 37.4117 91.1855 37.2168 91.2115 37.0001L91.194 36.8234C91.1881 36.7645 91.1728 36.7303 91.1481 36.7209C91.1328 36.6867 91.1328 36.6867 91.1481 36.7209C91.1647 36.5289 91.2537 36.407 91.4152 36.3553C91.6107 36.2883 91.7638 36.3325 91.8745 36.4881ZM100.615 43.0968C100.649 43.0815 100.758 42.9815 100.942 42.7967C101.135 42.5871 101.333 42.3652 101.536 42.1309C101.773 41.8814 101.971 41.6594 102.13 41.4652C102.289 41.2709 102.366 41.1443 102.36 41.0854C102.06 41.0558 101.71 41.1916 101.312 41.4929C100.914 41.7942 100.61 42.0325 100.401 42.2079C99.5423 42.9 98.7137 43.6604 97.9157 44.4892C97.5573 44.8341 97.2161 45.1713 96.8919 45.5009C96.5678 45.8306 96.2389 46.1725 95.9053 46.5269C96.1976 46.3551 96.4651 46.1739 96.7079 45.9832C96.9754 45.802 97.2429 45.6207 97.5104 45.4395C98.0454 45.0771 98.5728 44.6975 99.0926 44.3009C99.6123 43.9043 100.12 43.5029 100.615 43.0968ZM105.504 60.221C105.569 60.2741 105.632 60.3689 105.693 60.5056C105.836 60.5033 105.961 60.5087 106.069 60.5217C106.202 60.5442 106.326 60.5914 106.44 60.6633C106.857 60.9075 107.024 61.2121 106.942 61.5772C106.859 61.9423 106.646 62.3144 106.303 62.6935C105.96 63.0725 105.533 63.448 105.023 63.8199C104.513 64.1918 104.051 64.5113 103.637 64.7785C103.727 64.8409 103.804 64.8987 103.868 64.9518C103.967 64.9895 104.079 65.032 104.202 65.0792C104.474 65.183 104.753 65.2327 105.038 65.2282C105.357 65.2084 105.656 65.1667 105.936 65.1033C106.181 65.0552 106.427 64.9652 106.676 64.8334C106.949 64.7111 107.189 64.6041 107.394 64.5123C107.633 64.4053 107.783 64.4201 107.844 64.5568C107.94 64.6782 107.886 64.856 107.683 65.0903C107.568 65.2445 107.322 65.4058 106.946 65.574C106.604 65.7269 106.34 65.8245 106.154 65.8668C105.62 66.0031 105.066 66.0463 104.49 65.9964C103.923 65.9218 103.435 65.6789 103.025 65.2675C102.976 65.2486 102.956 65.2268 102.965 65.2021L102.644 65.3768C102.292 65.5544 101.851 65.7827 101.32 66.0615C100.798 66.3156 100.248 66.5308 99.6708 66.7071C99.1182 66.8929 98.5739 66.9826 98.038 66.9764C97.4926 66.9949 97.035 66.8202 96.6654 66.4525C96.1663 65.9786 95.974 65.4802 96.0886 64.9573C96.1879 64.4002 96.445 63.875 96.86 63.3817C97.2502 62.8789 97.7052 62.4293 98.225 62.0326C98.7447 61.636 99.1849 61.3365 99.5454 61.1341C100.189 60.7847 100.872 60.4789 101.596 60.2167C102.329 59.9297 103.068 59.773 103.815 59.7464C104.11 59.7171 104.398 59.742 104.679 59.8211C104.995 59.885 105.27 60.0182 105.504 60.221ZM103.174 62.0942C103.333 61.8999 103.544 61.6827 103.805 61.4426C104.076 61.1777 104.37 60.9641 104.687 60.8018C104.372 60.738 104.028 60.7483 103.656 60.8329C103.317 60.9022 102.96 61.0209 102.585 61.1891C102.243 61.342 101.909 61.512 101.582 61.6991C101.29 61.8709 101.037 62.015 100.822 62.1315C100.393 62.3645 99.975 62.644 99.5672 62.97C99.1689 63.2713 98.8029 63.5991 98.4693 63.9534C98.4163 64.0182 98.3196 64.123 98.1793 64.2678C98.0638 64.422 97.9435 64.5886 97.8185 64.7676C97.7183 64.956 97.6228 65.132 97.532 65.2957C97.4659 65.4688 97.4652 65.5819 97.53 65.6349C97.6923 65.9519 97.9826 66.1194 98.4007 66.1373C98.8189 66.1553 99.2701 66.0867 99.7543 65.9315C100.263 65.7857 100.766 65.5811 101.264 65.3176C101.761 65.054 102.19 64.8211 102.55 64.6187C102.401 64.1934 102.382 63.7611 102.493 63.3218C102.638 62.8672 102.865 62.458 103.174 62.0942ZM103.888 62.4516C103.641 62.7259 103.457 63.0238 103.334 63.3453C103.221 63.642 103.201 63.9177 103.273 64.1722C103.488 64.0557 103.746 63.8992 104.048 63.7027C104.384 63.4908 104.695 63.2696 104.981 63.0389C105.277 62.7835 105.531 62.5263 105.743 62.2673C105.965 61.9835 106.081 61.7162 106.092 61.4653C106.099 61.298 105.988 61.2556 105.758 61.3379C105.562 61.4049 105.323 61.5119 105.04 61.659C104.782 61.8155 104.536 61.9767 104.303 62.1426C104.07 62.3086 103.931 62.4115 103.888 62.4516ZM107.563 65.0443C107.938 64.8761 108.331 64.7002 108.741 64.5168C109.186 64.318 109.63 64.1192 110.074 63.9204C109.891 63.5104 109.983 63.1205 110.35 62.7509C110.51 62.5566 110.757 62.3536 111.093 62.1418C111.429 61.93 111.78 61.7523 112.146 61.6088C112.522 61.4406 112.899 61.3437 113.277 61.318C113.656 61.2924 113.962 61.3809 114.196 61.5837C114.465 61.7712 114.505 61.9991 114.318 62.2676C114.164 62.5207 113.903 62.7609 113.533 62.988C113.187 63.2245 112.81 63.4345 112.4 63.618C112.014 63.8109 111.719 63.9533 111.514 64.045C111.737 64.13 111.956 64.1855 112.173 64.2116C112.489 64.2754 112.837 64.3657 113.217 64.4826C113.632 64.5841 113.898 64.8134 114.017 65.1704C114.126 65.5522 114.065 65.8973 113.834 66.2057C113.628 66.5236 113.335 66.8085 112.956 67.0604C112.61 67.2969 112.233 67.5069 111.823 67.6904C111.422 67.8492 111.102 67.9821 110.863 68.0891C110.667 68.1561 110.374 68.2566 109.983 68.3907C109.616 68.5341 109.24 68.7023 108.855 68.8953C108.47 69.0882 108.134 69.3 107.848 69.5307C107.561 69.7614 107.437 70.0116 107.476 70.2814C107.642 70.5147 107.87 70.6586 108.161 70.713C108.462 70.7426 108.781 70.7228 109.119 70.6535C109.482 70.5937 109.825 70.5121 110.148 70.4086C110.48 70.2804 110.744 70.1828 110.939 70.1158C111.746 69.8572 112.526 69.5597 113.278 69.2233C114.054 68.8963 114.823 68.5523 115.584 68.1911C115.721 68.13 115.862 68.0564 116.008 67.9705C116.154 67.8847 116.292 67.8948 116.422 68.0009C116.536 68.0728 116.591 68.1506 116.588 68.2342C116.609 68.3273 116.593 68.4062 116.54 68.4709C116.511 68.5451 116.441 68.6175 116.329 68.6881C116.252 68.7434 116.179 68.7864 116.11 68.817C115.417 69.1475 114.712 69.4734 113.995 69.7945C113.311 70.1003 112.591 70.3919 111.833 70.6694C111.579 70.7423 111.146 70.8746 110.534 71.0662C109.932 71.233 109.329 71.3286 108.725 71.353C108.111 71.4021 107.581 71.3416 107.136 71.1717C106.691 71.0018 106.515 70.6088 106.609 69.9928C106.632 69.6336 106.748 69.295 106.954 68.9771C107.16 68.6592 107.411 68.3725 107.707 68.1171C108.012 67.8369 108.321 67.5862 108.632 67.365C108.968 67.1532 109.277 66.9737 109.56 66.8267L111.573 65.895C111.573 65.895 111.624 65.8721 111.727 65.8262C111.863 65.7651 112 65.7039 112.137 65.6427C112.273 65.5816 112.41 65.5204 112.547 65.4592C112.708 65.4075 112.818 65.3787 112.877 65.3729C112.812 65.3198 112.681 65.2555 112.483 65.18C112.285 65.1045 112.071 65.0366 111.839 64.9764C111.641 64.9009 111.45 64.8425 111.268 64.8011C111.095 64.735 110.984 64.6926 110.934 64.6737C110.761 64.6076 110.642 64.548 110.577 64.495C110.167 64.6785 109.752 64.8743 109.333 65.0826C108.913 65.2908 108.528 65.4837 108.177 65.6613C108.109 65.6919 108.023 65.7302 107.921 65.776C107.852 65.8066 107.776 65.8201 107.693 65.8165C107.501 65.7999 107.388 65.6862 107.356 65.4753C107.323 65.2644 107.392 65.1207 107.563 65.0443ZM110.956 63.2796C110.86 63.3844 110.817 63.4956 110.829 63.6134C111.282 63.3899 111.711 63.157 112.116 62.9146C112.544 62.6816 112.936 62.4345 113.291 62.1732C112.898 62.1647 112.465 62.297 111.992 62.57C111.529 62.8182 111.184 63.0547 110.956 63.2796ZM124.481 71.7997C123.422 72.2737 122.338 72.7383 121.229 73.1935C120.155 73.6333 119.044 73.9459 117.896 74.1313C117.298 74.2145 116.67 74.1876 116.014 74.0506C115.358 73.9135 114.915 73.5174 114.683 72.8623C114.555 72.53 114.52 72.1766 114.578 71.8021C114.636 71.4275 114.743 71.0719 114.9 70.7351C115.066 70.3735 115.265 70.0385 115.496 69.7301C115.702 69.4122 115.899 69.119 116.087 68.8505C116.967 67.6567 117.985 66.586 119.14 65.6385C120.32 64.7004 121.563 63.8572 122.868 63.1089C124.199 62.37 125.567 61.7166 126.974 61.1486C128.391 60.5558 129.783 60.0249 131.152 59.5558C131.475 59.4523 131.977 59.2895 132.656 59.0673C133.336 58.8451 134.027 58.6695 134.728 58.5403C135.453 58.4207 136.112 58.4028 136.703 58.4869C137.319 58.5803 137.725 58.891 137.92 59.4188C137.993 59.6733 137.952 59.9271 137.799 60.1803C137.646 60.4335 137.431 60.663 137.154 60.869C136.902 61.0844 136.629 61.278 136.337 61.4498C136.054 61.5968 135.835 61.7257 135.68 61.8363C135.042 62.2446 134.372 62.6264 133.67 62.9817C132.977 63.3123 132.289 63.6304 131.605 63.9363C129.248 64.9913 126.872 65.9828 124.477 66.9106C122.083 67.8385 119.674 68.7321 117.249 69.5916C117.003 69.8659 116.761 70.1279 116.524 70.3774C116.312 70.6365 116.12 70.9173 115.947 71.2199C115.65 71.7015 115.529 72.0942 115.583 72.3982C115.671 72.6868 115.841 72.9078 116.095 73.0611C116.348 73.2144 116.666 73.3077 117.05 73.3409C117.459 73.3836 117.862 73.3674 118.259 73.2922C119.053 73.142 119.829 72.9281 120.586 72.6506C121.378 72.3578 122.155 72.0308 122.916 71.6697C123.087 71.5933 123.284 71.4844 123.508 71.3432C123.757 71.2115 123.962 71.1197 124.123 71.068C124.378 70.9951 124.563 71.0659 124.68 71.2804C124.796 71.4948 124.73 71.668 124.481 71.7997ZM118.898 68.0537L123.962 66.0339C126.297 65.1119 128.627 64.131 130.95 63.0912L134.325 61.4891C134.471 61.4032 134.68 61.2991 134.954 61.1767C135.261 61.0391 135.556 60.8968 135.839 60.7497C136.156 60.5874 136.436 60.4109 136.679 60.2202C136.922 60.0295 137.064 59.8429 137.105 59.6604C136.989 59.4459 136.751 59.3268 136.391 59.303C136.066 59.2639 135.705 59.2819 135.308 59.357C134.945 59.4169 134.59 59.4938 134.243 59.5878C133.895 59.6818 133.641 59.7547 133.479 59.8064C132.613 60.0709 131.758 60.3819 130.913 60.7394C130.068 61.097 129.231 61.4716 128.402 61.8633C126.792 62.6656 125.23 63.5286 123.716 64.4523C122.226 65.3855 120.807 66.4306 119.459 67.5876L118.898 68.0537ZM137.215 76.6603C136.156 77.1343 135.062 77.6236 133.935 78.1282C132.841 78.6175 131.73 78.9301 130.602 79.066C130.131 79.1128 129.641 79.096 129.133 79.0156C128.651 78.9446 128.258 78.7099 127.957 78.3116C127.766 78.0688 127.652 77.8125 127.613 77.5427C127.599 77.2824 127.627 77.0239 127.697 76.7671C127.776 76.4856 127.88 76.2136 128.008 75.951C128.161 75.6978 128.305 75.4694 128.44 75.2657L126.847 75.7629C126.525 75.8664 126.143 75.9757 125.702 76.0908C125.262 76.206 124.813 76.3041 124.357 76.385C123.911 76.4413 123.466 76.4557 123.023 76.4283C122.615 76.3857 122.256 76.2488 121.948 76.0177C121.614 75.7772 121.45 75.502 121.455 75.1922C121.435 74.873 121.499 74.5574 121.647 74.2453C121.779 73.8991 121.973 73.5764 122.229 73.2774C122.484 72.9784 122.717 72.7412 122.925 72.5658C123.57 71.9902 124.315 71.5236 125.159 71.1661C126.038 70.7932 126.904 70.5288 127.757 70.3727C128.071 70.2939 128.463 70.2312 128.934 70.1844C129.415 70.1128 129.894 70.0831 130.371 70.0952C130.882 70.092 131.353 70.1583 131.782 70.294C132.222 70.405 132.569 70.6084 132.825 70.9043C133.257 70.5877 133.697 70.2882 134.145 70.0058C134.602 69.6986 135.055 69.4038 135.503 69.1214C138.112 67.4823 140.825 66.0528 143.642 64.8331C143.838 64.7661 144.123 64.6485 144.499 64.4803C144.9 64.3215 145.33 64.1599 145.79 63.9952C146.283 63.8153 146.785 63.6525 147.293 63.5068C147.827 63.3705 148.308 63.299 148.735 63.2922C149.197 63.2701 149.572 63.3281 149.859 63.4661C150.171 63.6135 150.365 63.8857 150.44 64.2828C150.479 64.5525 150.404 64.8217 150.217 65.0901C150.063 65.3433 149.848 65.5728 149.571 65.7788C149.319 65.9942 149.042 66.2001 148.74 66.3967C148.448 66.5685 148.212 66.7049 148.032 66.8061C147.36 67.2297 146.673 67.6192 145.971 67.9745C145.268 68.3298 144.571 68.6727 143.878 69.0032C142.536 69.6243 141.191 70.2159 139.843 70.7781C138.495 71.3403 137.135 71.8978 135.762 72.4505L132.529 73.6817C132.359 73.7581 132.132 73.8699 131.849 74.017C131.576 74.1393 131.307 74.2493 131.043 74.3469C130.66 74.6823 130.289 75.0225 129.931 75.3674C129.607 75.697 129.303 76.0484 129.019 76.4217C128.706 76.8691 128.582 77.2324 128.645 77.5116C128.718 77.7661 128.886 77.9576 129.148 78.0862C129.411 78.2148 129.739 78.2833 130.132 78.2918C130.526 78.3003 130.891 78.2699 131.23 78.2006C131.965 78.0562 132.669 77.8435 133.343 77.5624C134.051 77.266 134.747 76.9649 135.431 76.6591L136.843 75.9656C136.955 75.895 137.06 75.8786 137.159 75.9164C137.283 75.9636 137.368 76.0384 137.413 76.1409C137.469 76.2187 137.477 76.3071 137.44 76.406C137.427 76.5143 137.352 76.5991 137.215 76.6603ZM141.556 67.1818C140.206 67.9701 138.877 68.7803 137.568 69.6122C136.283 70.4536 135.009 71.3416 133.746 72.276C134.454 71.9796 135.162 71.6833 135.87 71.3869C136.579 71.0905 137.291 70.7817 138.009 70.4606C139.102 69.9713 140.179 69.4897 141.238 69.0156C142.332 68.5263 143.413 68.0323 144.481 67.5335C145.038 67.2642 145.594 66.9948 146.15 66.7254C146.716 66.4313 147.269 66.1324 147.81 65.8289C148.034 65.6877 148.257 65.5465 148.481 65.4052C148.705 65.264 148.917 65.1181 149.116 64.9675C149.184 64.9369 149.276 64.8445 149.392 64.6902C149.542 64.5207 149.629 64.4407 149.653 64.4501C149.712 64.4443 149.66 64.3959 149.496 64.3051C149.357 64.2237 149.3 64.1878 149.325 64.1972C149.118 64.1464 148.913 64.1251 148.712 64.1332C148.535 64.1508 148.354 64.1807 148.168 64.223C147.771 64.2981 147.394 64.395 147.037 64.5138C146.68 64.6325 146.318 64.7636 145.951 64.9071C145.175 65.234 144.426 65.5999 143.705 66.0046C142.993 66.3847 142.277 66.777 141.556 67.1818ZM128.454 74.3363C128.548 74.3152 128.684 74.254 128.865 74.1528C129.07 74.0611 129.265 73.9941 129.451 73.9518C129.866 73.4585 130.292 73.0117 130.728 72.6115C131.198 72.196 131.676 71.7976 132.162 71.4163C132.007 71.3007 131.797 71.2205 131.531 71.1755C131.299 71.1153 131.07 71.0845 130.844 71.0832C130.224 71.0734 129.613 71.1519 129.011 71.3188C128.409 71.4857 127.818 71.6991 127.237 71.959C127.066 72.0355 126.685 72.216 126.095 72.5007C125.505 72.7854 124.9 73.1072 124.282 73.466C123.697 73.8096 123.196 74.1568 122.779 74.5075C122.362 74.8583 122.241 75.138 122.416 75.3466C122.592 75.5552 122.829 75.6743 123.13 75.704C123.464 75.7183 123.796 75.7032 124.125 75.6587C124.463 75.5894 124.793 75.503 125.116 75.3996C125.464 75.3056 125.748 75.2298 125.968 75.1722C126.815 74.9572 127.644 74.6786 128.454 74.3363Z" fill="#484848"/>
<rect x="16.5138" y="1.09089" width="4.73517" height="4.73517" transform="rotate(20.892 16.5138 1.09089)" fill="white" stroke="#699AE3" stroke-width="0.992669"/>
<rect x="2.70809" y="37.26" width="4.73517" height="4.73517" transform="rotate(20.892 2.70809 37.26)" fill="white" stroke="#699AE3" stroke-width="0.992669"/>
<rect x="139.037" y="89.2963" width="4.73517" height="4.73517" transform="rotate(20.892 139.037 89.2963)" fill="white" stroke="#699AE3" stroke-width="0.992669"/>
<rect x="152.842" y="53.128" width="4.73517" height="4.73517" transform="rotate(20.892 152.842 53.128)" fill="white" stroke="#699AE3" stroke-width="0.992669"/>
</svg>
