<svg width="112" height="72" viewBox="0 0 112 72" fill="none" xmlns="http://www.w3.org/2000/svg">
<line x1="14.2927" y1="3.05926" x2="2.27559" y2="34.5455" stroke="#699AE3" stroke-width="0.9486"/>
<line x1="107.808" y1="38.7499" x2="95.7912" y2="70.2362" stroke="#699AE3" stroke-width="0.9486"/>
<line x1="5.44538" y1="27.4206" x2="97.9378" y2="62.7215" stroke="#699AE3" stroke-width="0.821989"/>
<line x1="2.97186" y1="33.9012" x2="95.4643" y2="69.2022" stroke="#699AE3" stroke-width="0.948599"/>
<line x1="14.7394" y1="3.07043" x2="107.232" y2="38.3713" stroke="#699AE3" stroke-width="0.948599"/>
<path d="M21.1472 32.6447C20.7133 32.2445 20.4966 31.7981 20.4969 31.3056C20.4972 30.813 20.6014 30.3248 20.8095 29.8412C21.038 29.3653 21.328 28.9129 21.6794 28.4839C22.0386 28.0345 22.3705 27.6567 22.675 27.3506C23.1035 26.9042 23.5627 26.4694 24.0526 26.0464C24.5425 25.6234 25.0388 25.2145 25.5414 24.8197C23.5754 24.0694 21.586 23.3805 19.5731 22.753C18.9037 23.1545 18.2344 23.5559 17.565 23.9574C16.9239 24.3462 16.2789 24.7452 15.63 25.1545C14.9606 25.556 14.2629 25.9701 13.5369 26.3969C12.8393 26.811 12.1913 27.2793 11.5931 27.8017C11.586 28.1275 11.538 28.4376 11.4491 28.7322C11.3523 29.0472 11.1547 29.2885 10.8561 29.456C10.6502 29.5652 10.4449 29.5806 10.2401 29.5025C10.0275 29.4448 9.8949 29.3004 9.84237 29.0692C9.76452 28.7814 9.82368 28.5341 10.0199 28.3275C10.2365 28.1286 10.4351 27.9463 10.6157 27.7806L10.8865 27.5321C10.8857 27.2268 10.863 26.9483 10.8183 26.6966C10.7814 26.4244 10.7542 26.2498 10.7367 26.1727C10.6063 25.6537 10.4476 25.1474 10.2606 24.6537C10.0815 24.1396 9.88427 23.642 9.669 23.161C9.45373 22.6799 9.23065 22.2194 8.99974 21.7794C8.78932 21.3471 8.56866 20.911 8.33776 20.4709C8.25882 20.3704 8.20426 20.2675 8.17408 20.1621C8.15173 20.0363 8.21519 19.9314 8.36448 19.8476L8.55325 19.8141C8.9747 19.6934 9.42148 19.6293 9.89359 19.6218C10.3735 19.5938 10.848 19.6107 11.3172 19.6724C11.8146 19.7215 12.294 19.7872 12.7553 19.8694C13.2166 19.9516 13.6677 20.0299 14.1085 20.1043C15.0926 20.2922 16.0689 20.5006 17.0373 20.7294C18.0058 20.9583 18.9805 21.2013 19.9617 21.4584L23.2168 19.5686C24.2492 18.9538 25.2674 18.3453 26.2715 17.7431C27.2834 17.1204 28.2826 16.4695 29.2692 15.7902C29.7044 15.5105 30.1191 15.223 30.5134 14.9277C30.9359 14.6198 31.338 14.304 31.7196 13.9804C31.8562 13.8683 31.9801 13.7279 32.0914 13.5592C32.231 13.3779 32.3716 13.2556 32.5131 13.1922C32.5979 13.1543 32.6852 13.1407 32.775 13.1514C32.8647 13.1622 32.9364 13.1896 32.99 13.2335C33.0719 13.2648 33.1114 13.315 33.1084 13.3843C33.1259 13.4614 33.0947 13.5433 33.0146 13.63C32.3304 14.3777 31.5799 15.0532 30.7631 15.6565C29.9668 16.2676 29.1476 16.8465 28.3054 17.3932C27.2984 18.0646 26.2748 18.718 25.2346 19.3533C24.1944 19.9887 23.144 20.6201 22.0833 21.2476C21.9262 21.3519 21.773 21.4459 21.6237 21.5297C21.4744 21.6135 21.3212 21.7075 21.1641 21.8118C21.2051 21.8274 21.2358 21.8391 21.2563 21.8469C21.2846 21.8343 21.3192 21.8358 21.3602 21.8514C22.3334 22.129 23.2887 22.4232 24.2259 22.734C25.1913 23.0321 26.1631 23.3443 27.1413 23.6707L28.5011 22.782C29.593 22.0726 30.6795 21.408 31.7607 20.7883C32.8701 20.156 34.0025 19.5558 35.1577 18.9878C35.6748 18.7394 36.1778 18.4974 36.6666 18.2616C37.1759 18.0337 37.6955 17.8097 38.2253 17.5895L39.7063 17.0286C39.7912 16.9906 39.9083 16.9297 40.0576 16.846C40.2273 16.77 40.3712 16.731 40.4893 16.7292C40.7 16.6688 40.8394 16.7338 40.9076 16.924C40.9836 17.0938 40.9289 17.2371 40.7435 17.3541C40.5864 17.4584 40.4332 17.5524 40.2839 17.6362C40.1346 17.72 39.9814 17.814 39.8243 17.9183C39.3198 18.195 38.8114 18.4819 38.2992 18.7791C37.8074 19.0841 37.3092 19.375 36.8048 19.6517C35.7158 20.2918 34.6308 20.9218 33.5496 21.5415C32.4968 22.1485 31.4361 22.776 30.3676 23.424L28.8615 24.3273C29.6319 24.6448 30.3749 25.0339 31.0906 25.4948C31.3002 25.6217 31.4611 25.7535 31.5732 25.8901C31.6931 26.0062 31.6817 26.1896 31.5392 26.4402C31.4796 26.5348 31.4059 26.6357 31.3181 26.7429C31.2585 26.8375 31.1517 26.9023 30.9975 26.9373C30.8717 26.9597 30.7268 26.9396 30.563 26.8771C30.3992 26.8146 30.229 26.7379 30.0525 26.6471C29.8838 26.5358 29.7113 26.4347 29.5348 26.3439C29.3866 26.2404 29.251 26.1652 29.1282 26.1183C28.8005 25.9932 28.4728 25.8682 28.1452 25.7431C27.838 25.6259 27.5269 25.5189 27.2119 25.4221C26.684 25.7603 26.1687 26.1267 25.6662 26.5214C25.1714 26.8957 24.683 27.2841 24.2008 27.6866C23.791 28.0229 23.3835 28.3835 22.9785 28.7686C22.5812 29.1331 22.2235 29.548 21.9052 30.013C21.7578 30.2149 21.627 30.4347 21.5127 30.6727C21.4062 30.8901 21.351 31.1271 21.3469 31.3836C21.3458 31.5709 21.4242 31.7651 21.5821 31.9661C21.74 32.1671 21.7877 32.3496 21.7252 32.5134C21.5748 32.7845 21.3821 32.8282 21.1472 32.6447ZM9.31957 20.3881C9.27079 20.393 9.22202 20.3978 9.17325 20.4027C9.12447 20.4075 9.07179 20.4226 9.0152 20.4479C9.54329 21.4003 10.0314 22.396 10.4794 23.4351C10.9557 24.4615 11.2921 25.5166 11.4885 26.6004L11.5438 27.0087C12.6212 26.1529 13.7341 25.3577 14.8827 24.6229C16.039 23.8677 17.2119 23.1305 18.4014 22.4114C17.354 22.082 16.309 21.7771 15.2665 21.4965C14.2444 21.2237 13.2004 20.9777 12.1344 20.7586C11.6809 20.6559 11.2196 20.5737 10.7504 20.5119C10.2891 20.4297 9.81215 20.3884 9.31957 20.3881ZM10.517 28.8691C10.6838 28.8624 10.7897 28.7386 10.8347 28.4977C10.7703 28.5435 10.7161 28.5932 10.6722 28.6468C10.641 28.7287 10.5892 28.8028 10.517 28.8691ZM32.8633 28.9516C32.9169 28.9955 32.969 29.074 33.0197 29.1872C33.1377 29.1854 33.2416 29.1898 33.3313 29.2006C33.4415 29.2192 33.5439 29.2583 33.6385 29.3178C33.9837 29.52 34.122 29.7722 34.0536 30.0745C33.9851 30.3769 33.8088 30.685 33.5248 30.9989C33.2408 31.3128 32.8875 31.6237 32.4649 31.9317C32.0424 32.2397 31.6598 32.5043 31.3173 32.7255C31.3914 32.7772 31.4553 32.825 31.5089 32.869C31.5908 32.9002 31.683 32.9354 31.7854 32.9745C32.0107 33.0605 32.2413 33.1016 32.4774 33.0978C32.7417 33.0814 32.9895 33.0469 33.2207 32.9944C33.4236 32.9545 33.628 32.88 33.8339 32.7709C34.0602 32.6696 34.2583 32.581 34.4281 32.505C34.6261 32.4164 34.7505 32.4286 34.8011 32.5418C34.8801 32.6423 34.8356 32.7896 34.6677 32.9836C34.5721 33.1113 34.3686 33.2448 34.0574 33.3841C33.7744 33.5107 33.5559 33.5916 33.4017 33.6266C32.9598 33.7395 32.5004 33.7753 32.0234 33.734C31.5543 33.6723 31.1501 33.4711 30.8108 33.1304C30.7699 33.1148 30.7533 33.0967 30.7611 33.0763L30.4948 33.221C30.204 33.3681 29.8386 33.5571 29.3985 33.788C28.9663 33.9984 28.5111 34.1766 28.0331 34.3226C27.5755 34.4765 27.1249 34.5508 26.681 34.5456C26.2294 34.561 25.8506 34.4164 25.5445 34.1119C25.1311 33.7195 24.9719 33.3068 25.0668 32.8738C25.149 32.4124 25.3619 31.9775 25.7055 31.569C26.0286 31.1527 26.4054 30.7804 26.8357 30.4519C27.2661 30.1235 27.6306 29.8755 27.9292 29.7079C28.4619 29.4185 29.0278 29.1652 29.6269 28.9481C30.2337 28.7105 30.8463 28.5806 31.4648 28.5586C31.7086 28.5344 31.9471 28.555 32.1802 28.6205C32.4416 28.6733 32.6693 28.7837 32.8633 28.9516ZM30.9339 30.5027C31.0657 30.3419 31.2399 30.162 31.4566 29.9632C31.6811 29.7438 31.9245 29.567 32.187 29.4325C31.9256 29.3797 31.6408 29.3883 31.3325 29.4583C31.0526 29.5157 30.7569 29.614 30.4457 29.7533C30.1628 29.88 29.8861 30.0207 29.6158 30.1757C29.3739 30.3179 29.1641 30.4373 28.9865 30.5337C28.6313 30.7266 28.2849 30.9581 27.9472 31.2281C27.6174 31.4776 27.3144 31.749 27.0381 32.0425C26.9942 32.0961 26.9142 32.1828 26.798 32.3027C26.7023 32.4305 26.6028 32.5684 26.4993 32.7166C26.4163 32.8726 26.3372 33.0184 26.262 33.154C26.2073 33.2973 26.2067 33.3909 26.2604 33.4349C26.3948 33.6973 26.6351 33.836 26.9814 33.8508C27.3277 33.8657 27.7013 33.8089 28.1023 33.6804C28.5237 33.5597 28.9403 33.3902 29.3521 33.172C29.7639 32.9537 30.119 32.7608 30.4176 32.5932C30.2939 32.241 30.2781 31.883 30.37 31.5193C30.4902 31.1428 30.6782 30.804 30.9339 30.5027ZM31.5248 30.7987C31.3208 31.0258 31.168 31.2725 31.0664 31.5387C30.9726 31.7845 30.9559 32.0127 31.0162 32.2234C31.1938 32.127 31.4075 31.9974 31.6573 31.8346C31.9354 31.6592 32.1931 31.476 32.4302 31.285C32.6752 31.0735 32.8855 30.8605 33.0612 30.646C33.2447 30.411 33.3409 30.1897 33.3499 29.9819C33.3558 29.8434 33.2636 29.8082 33.0734 29.8764C32.9114 29.9319 32.7134 30.0205 32.4792 30.1423C32.2655 30.2719 32.062 30.4054 31.8688 30.5428C31.6756 30.6802 31.5609 30.7655 31.5248 30.7987ZM38.6799 31.9458C38.1911 32.1815 37.7188 32.4353 37.2631 32.7072C36.8357 32.9664 36.4108 33.25 35.9882 33.558C35.5735 33.8454 35.2139 34.1422 34.9093 34.4483C34.6409 34.7213 34.3813 35.0328 34.1304 35.3828C33.9 35.7406 33.7842 36.0132 33.7831 36.2004C33.782 36.3877 33.8531 36.5087 33.9965 36.5634C34.1603 36.626 34.3681 36.6349 34.6198 36.5902C34.8793 36.525 35.1568 36.4432 35.4524 36.3449C35.8329 36.2085 36.2032 36.0683 36.5632 35.9242C36.931 35.7596 37.3028 35.5847 37.6784 35.3996L37.8058 35.3426C37.8136 35.3221 37.8072 35.308 37.7868 35.3002C37.7946 35.2797 37.8024 35.2592 37.8102 35.2387C37.745 34.9792 37.7852 34.6896 37.9307 34.3697C38.0967 34.0577 38.314 33.7652 38.5824 33.4923C38.8508 33.2193 39.146 32.9683 39.468 32.7393C39.8105 32.5181 40.1398 32.3622 40.4559 32.2717C40.772 32.1812 41.0466 32.1687 41.2797 32.2342C41.5332 32.3075 41.6989 32.4881 41.7768 32.7758C41.8245 32.9583 41.8029 33.1377 41.7121 33.3142C41.6291 33.4703 41.5115 33.6248 41.3592 33.7778C41.2069 33.9309 41.0483 34.0698 40.8834 34.1945C40.7185 34.3193 40.5716 34.4275 40.4428 34.5191C40.1569 34.7149 39.8749 34.9006 39.5968 35.076C39.3187 35.2514 39.024 35.4087 38.7128 35.548C38.7254 35.5763 38.7522 35.5983 38.7932 35.6139C39.1149 35.8775 39.4953 35.9874 39.9342 35.9438C40.381 35.8797 40.7907 35.7898 41.1634 35.6739C41.2971 35.6311 41.4425 35.5575 41.5996 35.4533C41.7772 35.3568 41.9298 35.3564 42.0575 35.4521C42.2057 35.5556 42.2564 35.6687 42.2095 35.7916C42.1626 35.9145 42.0684 36.0076 41.9269 36.0709C41.6645 36.2053 41.3508 36.3202 40.9859 36.4156C40.6415 36.5188 40.2782 36.5795 39.8958 36.5978C39.5339 36.6239 39.1852 36.5847 38.8497 36.4801C38.5142 36.3755 38.2486 36.1803 38.0527 35.8944L37.7556 36.0273C37.4726 36.154 37.0624 36.3376 36.5248 36.5782C35.9872 36.8188 35.4345 37.0067 34.8667 37.1419C34.3272 37.2645 33.8307 37.2744 33.3772 37.1717C32.9442 37.0768 32.6845 36.7431 32.598 36.1704C32.5309 35.7929 32.578 35.4238 32.7391 35.063C32.9003 34.7021 33.1229 34.3648 33.407 34.0509C33.6705 33.7292 33.9672 33.4436 34.2971 33.194C34.6142 32.9163 34.9158 32.6794 35.2017 32.4835C35.8867 32.0411 36.6522 31.6646 37.4981 31.354C37.6395 31.2907 37.8054 31.2249 37.9956 31.1568C38.1859 31.0886 38.3707 31.0653 38.5502 31.0869C38.7501 31.1163 38.8661 31.2426 38.8982 31.466C38.9381 31.6689 38.8653 31.8289 38.6799 31.9458ZM41.1446 32.9569C41.053 32.8281 40.8492 32.8089 40.5331 32.8994C40.2453 32.9773 39.9404 33.1307 39.6183 33.3598C39.3041 33.5683 39.0191 33.8232 38.7634 34.1244C38.5359 34.413 38.4368 34.7036 38.4658 34.9963C38.7 34.8745 38.924 34.7488 39.1377 34.6192C39.3513 34.4896 39.569 34.3498 39.7905 34.1997C39.8549 34.1539 39.9656 34.0789 40.1227 33.9746C40.2798 33.8703 40.4267 33.7621 40.5633 33.65C40.7283 33.5253 40.8688 33.403 40.9849 33.2831C41.1011 33.1632 41.1543 33.0544 41.1446 32.9569ZM41.0232 39.4212C41.2162 39.7764 41.5047 40.0039 41.889 40.1036C42.2937 40.2111 42.7258 40.247 43.1852 40.2112C43.6447 40.1754 44.0954 40.1011 44.5373 39.9882C44.9871 39.8548 45.3597 39.739 45.6554 39.6407C46.5344 39.3661 47.3881 39.035 48.2164 38.6473C48.3501 38.6045 48.4916 38.5412 48.6409 38.4574C48.798 38.3531 48.9433 38.2796 49.077 38.2367C49.2877 38.1764 49.4311 38.2311 49.5071 38.4009C49.583 38.5706 49.5386 38.7179 49.3736 38.8426C49.1365 39.0337 48.7994 39.21 48.3623 39.3717C47.9457 39.5411 47.5896 39.675 47.294 39.7734C46.7925 39.9808 46.2783 40.16 45.7515 40.3108C45.2452 40.4695 44.7159 40.596 44.1638 40.6903C43.8633 40.7398 43.518 40.784 43.1278 40.8228C42.7659 40.8489 42.3953 40.8364 42.0159 40.7855C41.6491 40.7628 41.2917 40.6851 40.9435 40.5522C40.6159 40.4271 40.34 40.228 40.1158 39.9547C39.7259 39.5009 39.5862 39.037 39.6967 38.563C39.7868 38.0812 40.0075 37.6259 40.3589 37.1969C40.7103 36.7679 41.1217 36.397 41.593 36.0842C42.0721 35.7509 42.4893 35.4878 42.8445 35.2949C43.1918 35.1225 43.6304 34.9262 44.1602 34.7061C44.69 34.486 45.2348 34.3185 45.7948 34.2038C46.3626 34.0686 46.8991 34.0152 47.4043 34.0438C47.9379 34.0598 48.3743 34.2381 48.7135 34.5787C49.0244 34.932 49.0623 35.2632 48.827 35.5722C48.5995 35.8608 48.2516 36.1269 47.7833 36.3704C47.3432 36.6013 46.874 36.7859 46.3754 36.9241C45.8974 37.0701 45.5632 37.1772 45.373 37.2454C44.9028 37.3709 44.416 37.4784 43.9126 37.5678C43.4297 37.665 42.9381 37.7237 42.4377 37.7439C42.3196 37.7458 42.1733 37.7603 41.9987 37.7875C41.8524 37.8021 41.6997 37.8025 41.5407 37.7887C41.3084 38.0285 41.1376 38.2918 41.0282 38.5785C40.9265 38.8447 40.9186 39.1115 41.0043 39.3788C40.9964 39.3993 41.0028 39.4134 41.0232 39.4212ZM43.211 36.4554C43.0617 36.5392 42.8944 36.6395 42.709 36.7565C42.544 36.8812 42.3752 37.0162 42.2025 37.1615C42.7974 37.2008 43.4032 37.1505 44.0198 37.0104C44.6363 36.8703 45.2119 36.7146 45.7465 36.5433C45.8519 36.5131 46.0885 36.4157 46.4563 36.2511C46.8446 36.0943 47.2022 35.9258 47.5291 35.7455C47.8843 35.5526 48.1175 35.3718 48.2288 35.2031C48.3401 35.0345 48.1753 34.9129 47.7345 34.8385C47.3551 34.7876 46.9625 34.802 46.5567 34.8817C46.1508 34.9614 45.7499 35.0899 45.3537 35.2672C44.9654 35.424 44.5898 35.6091 44.2268 35.8225C43.8638 36.0359 43.5252 36.2468 43.211 36.4554ZM41.0232 39.4212C41.0028 39.4134 40.9964 39.3993 41.0043 39.3788L41.0232 39.4212ZM49.3859 38.601C49.6971 38.4617 50.0225 38.316 50.362 38.1641C50.7299 37.9995 51.0977 37.8349 51.4655 37.6702C51.3136 37.3307 51.3899 37.0079 51.6944 36.7018C51.8262 36.5409 52.0311 36.3728 52.3092 36.1974C52.5873 36.022 52.8781 35.8749 53.1815 35.7561C53.4928 35.6168 53.8049 35.5365 54.1181 35.5152C54.4312 35.494 54.6847 35.5673 54.8787 35.7352C55.101 35.8904 55.1346 36.0792 54.9794 36.3015C54.8524 36.5111 54.6358 36.71 54.3294 36.898C54.0434 37.0939 53.7307 37.2678 53.3912 37.4198C53.0721 37.5795 52.8277 37.6974 52.6579 37.7734C52.8422 37.8437 53.0241 37.8897 53.2036 37.9113C53.465 37.9641 53.7532 38.0389 54.0682 38.1357C54.4114 38.2198 54.6323 38.4096 54.7306 38.7052C54.8211 39.0213 54.7707 39.3071 54.5794 39.5625C54.4085 39.8258 54.166 40.0617 53.8518 40.2702C53.5658 40.4661 53.2531 40.64 52.9136 40.792C52.5818 40.9235 52.3169 41.0335 52.1189 41.1222C51.9569 41.1776 51.714 41.2609 51.3901 41.3719C51.0867 41.4907 50.7754 41.63 50.4564 41.7898C50.1373 41.9495 49.8592 42.1249 49.6221 42.316C49.3849 42.507 49.2824 42.7142 49.3144 42.9376C49.4518 43.1308 49.641 43.2499 49.8819 43.295C50.1306 43.3195 50.3949 43.3031 50.6749 43.2457C50.9754 43.1961 51.2593 43.1285 51.5266 43.0429C51.8017 42.9367 52.0203 42.8559 52.1822 42.8004C52.8505 42.5862 53.4959 42.3398 54.1184 42.0613C54.7614 41.7905 55.398 41.5056 56.0283 41.2065C56.1415 41.1559 56.2586 41.095 56.3796 41.0238C56.5006 40.9527 56.6147 40.9611 56.7219 41.0489C56.8165 41.1085 56.8623 41.1729 56.8593 41.2421C56.8768 41.3192 56.8636 41.3846 56.8197 41.4382C56.7963 41.4996 56.7382 41.5596 56.6455 41.618C56.5811 41.6638 56.5206 41.6994 56.464 41.7247C55.8903 41.9985 55.3063 42.2683 54.7121 42.5342C54.1462 42.7875 53.5496 43.029 52.9223 43.2588C52.7115 43.3192 52.353 43.4287 51.8467 43.5873C51.3482 43.7255 50.8487 43.8047 50.3483 43.8249C49.8401 43.8656 49.4017 43.8155 49.033 43.6748C48.6644 43.5342 48.5188 43.2088 48.5962 42.6987C48.6159 42.4012 48.7111 42.1208 48.882 41.8576C49.0529 41.5943 49.2608 41.3569 49.5057 41.1454C49.7585 40.9134 50.0137 40.7058 50.2713 40.5226C50.5494 40.3472 50.8056 40.1986 51.0397 40.0768L52.7067 39.3053C52.7067 39.3053 52.7492 39.2863 52.8341 39.2483C52.9472 39.1977 53.0604 39.147 53.1736 39.0964C53.2868 39.0457 53.3999 38.9951 53.5131 38.9444C53.6468 38.9016 53.738 38.8778 53.7868 38.8729C53.7332 38.829 53.6244 38.7757 53.4606 38.7132C53.2968 38.6507 53.1188 38.5945 52.9267 38.5446C52.7628 38.4821 52.6053 38.4337 52.4542 38.3995C52.3108 38.3448 52.2187 38.3096 52.1777 38.294C52.0343 38.2393 51.9359 38.1899 51.8822 38.146C51.5427 38.298 51.1993 38.4602 50.8519 38.6326C50.5045 38.805 50.1855 38.9648 49.8947 39.1119C49.8381 39.1372 49.7674 39.1689 49.6825 39.2069C49.6259 39.2322 49.563 39.2434 49.4937 39.2404C49.3348 39.2267 49.2417 39.1325 49.2145 38.9579C49.1873 38.7832 49.2444 38.6643 49.3859 38.601ZM52.196 37.1396C52.1159 37.2263 52.0808 37.3185 52.0905 37.416C52.4661 37.2309 52.8213 37.038 53.156 36.8373C53.5111 36.6444 53.8356 36.4398 54.1293 36.2234C53.8035 36.2164 53.445 36.3259 53.0537 36.5519C52.6703 36.7575 52.3843 36.9534 52.196 37.1396ZM60.4226 50.2038C61.1128 49.3176 61.8605 48.465 62.6657 47.6462C63.4914 46.8351 64.3463 46.0705 65.2305 45.3521C66.143 44.6211 67.0642 43.9287 67.9942 43.2747C68.932 42.6003 69.8619 41.9464 70.7841 41.313C71.8116 40.6493 72.8635 39.9833 73.9398 39.3148C75.0161 38.6464 76.1177 38.0345 77.2447 37.4792C78.3795 36.9034 79.5317 36.4047 80.7015 35.9831C81.8918 35.5693 83.1044 35.2813 84.3394 35.1192C84.5911 35.0745 84.9222 35.0366 85.3329 35.0057C85.7436 34.9747 86.1449 34.9989 86.537 35.0781C86.9369 35.1369 87.2748 35.2659 87.5507 35.465C87.8549 35.6515 88.0084 35.9564 88.011 36.3798C88.0156 36.9211 87.8611 37.4487 87.5477 37.9626C87.2626 38.4638 86.9789 38.9303 86.6968 39.3622C85.9489 40.4611 85.1694 41.4892 84.3582 42.4465L83.9512 42.9598L84.3142 42.7464C85.408 42.155 86.5286 41.5856 87.676 41.0381C88.8517 40.478 90.0411 40.0052 91.244 39.6197C92.4674 39.242 93.7068 38.9759 94.9623 38.8216C96.2255 38.6468 97.5019 38.653 98.7912 38.8401C98.9707 38.8617 99.2297 38.8901 99.5681 38.9254C99.9066 38.9608 100.138 39.0609 100.263 39.2258C100.362 39.3341 100.396 39.4293 100.365 39.5112C100.334 39.5931 100.268 39.6735 100.167 39.7525C100.075 39.8109 99.9616 39.8616 99.8279 39.9044C99.7226 39.9346 99.6416 39.9624 99.585 39.9877C98.9703 40.2458 98.3747 40.5463 97.798 40.8893C97.2291 41.2118 96.6729 41.5626 96.1294 41.9417C95.0706 42.6873 94.0615 43.487 93.1021 44.3408C92.1506 45.1742 91.222 46.0398 90.3162 46.9376C89.4105 47.8354 88.5315 48.7552 87.6794 49.6969C86.8478 50.6464 86.0761 51.654 85.3643 52.7197C85.0383 53.2053 84.7287 53.7089 84.4358 54.2306C84.1428 54.7522 83.9113 55.2973 83.7413 55.8659C83.707 56.0171 83.6776 56.217 83.6531 56.4657C83.6207 56.7349 83.5299 56.9114 83.3806 56.9952C83.2109 57.0712 83.0967 57.0628 83.0383 56.9701C82.972 56.8979 82.9316 56.7886 82.917 56.6423C82.9025 56.496 82.9021 56.3433 82.9159 56.1843C82.9218 56.0458 82.9262 55.942 82.9292 55.8727C83.0479 54.8857 83.3484 53.9446 83.8308 53.0494C84.3415 52.1416 84.8775 51.2904 85.4389 50.4958C86.706 48.774 88.1121 47.2108 89.657 45.8062C90.9931 44.58 92.4302 43.4274 93.9681 42.3486C95.5138 41.2493 97.1355 40.3198 98.8332 39.56C97.8384 39.4618 96.8463 39.5407 95.8571 39.7966C94.8757 40.0321 93.9235 40.3139 93.0006 40.642C91.8669 41.0305 90.7459 41.4473 89.6375 41.8923C88.5292 42.3374 87.4296 42.821 86.3387 43.3432C85.3611 43.8147 84.3961 44.3145 83.4438 44.8425C82.4992 45.3502 81.5674 45.8861 80.6482 46.4503L79.1857 47.7925C78.7885 48.157 78.3849 48.5075 77.9751 48.8437C77.5856 49.1878 77.186 49.528 76.7761 49.8642C76.6395 49.9763 76.4668 50.1216 76.2579 50.2999C76.0491 50.4783 75.8158 50.6591 75.5582 50.8423C75.3289 51.0129 75.0908 51.1449 74.8439 51.2384C74.6176 51.3397 74.4083 51.3654 74.2162 51.3155C74.0982 51.3174 74.0304 51.2798 74.0129 51.2027C73.8599 51.0505 73.8302 50.8515 73.924 50.6057C74.0461 50.3473 74.2248 50.0636 74.4601 49.7545C74.7158 49.4533 75.0062 49.1535 75.3312 48.8553C75.6845 48.5443 76.03 48.2539 76.3676 47.9839C76.7053 47.7139 77.0029 47.4873 77.2605 47.3041C77.526 47.1004 77.709 46.9591 77.8095 46.8801C78.92 46.0605 80.0959 45.254 81.3371 44.4608C81.7656 44.0144 82.1877 43.5537 82.6036 43.079C83.0399 42.612 83.4762 42.1451 83.9125 41.6781C84.3126 41.2443 84.7026 40.8066 85.0823 40.3649C85.462 39.9233 85.8252 39.4636 86.1717 38.9859C86.2469 38.8504 86.366 38.6612 86.5291 38.4184C86.7204 38.163 86.881 37.8958 87.0109 37.6169C87.1691 37.3254 87.2747 37.0489 87.3275 36.7875C87.4086 36.5135 87.3868 36.294 87.2621 36.1291C87.1783 35.9798 86.9979 35.8992 86.7209 35.8873C86.4643 35.8833 86.277 35.8822 86.159 35.8841C85.5767 35.873 85.0041 35.9594 84.4412 36.1434C83.886 36.307 83.3373 36.4846 82.7948 36.6765C80.5089 37.5636 78.2887 38.6167 76.1342 39.8356C74.008 41.0418 71.9135 42.3188 69.8506 43.6665C67.9527 44.8895 66.081 46.2281 64.2356 47.6823C63.7974 48.0312 63.3734 48.3738 62.9635 48.71C62.5663 49.0746 62.1691 49.4392 61.7718 49.8037C61.6557 49.9236 61.5176 50.0703 61.3575 50.2439C61.2179 50.4252 61.0774 50.5475 60.9359 50.6108C60.8041 50.7717 60.6578 50.7862 60.4969 50.6545C60.3361 50.5227 60.3113 50.3725 60.4226 50.2038ZM74.6864 50.5448C74.9693 50.4181 75.2372 50.2388 75.49 50.0068C75.7427 49.7748 75.9814 49.5492 76.2058 49.3298C75.9482 49.5131 75.6686 49.7231 75.3671 49.9599C75.0733 50.1763 74.8464 50.3712 74.6864 50.5448ZM88.4182 57.5101C88.6111 57.8653 88.8997 58.0928 89.284 58.1925C89.6887 58.3 90.1208 58.3359 90.5802 58.3001C91.0397 58.2643 91.4903 58.19 91.9323 58.0771C92.382 57.9437 92.7547 57.8279 93.0503 57.7296C93.9293 57.455 94.783 57.1239 95.6114 56.7362C95.7451 56.6934 95.8865 56.6301 96.0358 56.5463C96.1929 56.442 96.3383 56.3685 96.472 56.3256C96.6827 56.2653 96.826 56.32 96.902 56.4898C96.978 56.6595 96.9335 56.8068 96.7686 56.9315C96.5315 57.1226 96.1943 57.2989 95.7573 57.4606C95.3407 57.63 94.9845 57.7639 94.6889 57.8623C94.1874 58.0697 93.6733 58.2489 93.1465 58.3997C92.6401 58.5584 92.1109 58.6849 91.5587 58.7792C91.2583 58.8287 90.913 58.8729 90.5228 58.9117C90.1609 58.9378 89.7902 58.9253 89.4108 58.8744C89.0441 58.8517 88.6866 58.774 88.3385 58.6411C88.0108 58.516 87.7349 58.3169 87.5107 58.0436C87.1209 57.5898 86.9812 57.1259 87.0917 56.6519C87.1817 56.1701 87.4025 55.7148 87.7539 55.2858C88.1053 54.8568 88.5167 54.4859 88.988 54.1731C89.4671 53.8398 89.8843 53.5767 90.2394 53.3838C90.5868 53.2114 91.0254 53.0151 91.5551 52.795C92.0849 52.5749 92.6298 52.4074 93.1898 52.2927C93.7575 52.1575 94.294 52.1041 94.7993 52.1327C95.3328 52.1487 95.7692 52.327 96.1085 52.6676C96.4194 53.0209 96.4572 53.3521 96.222 53.6611C95.9945 53.9497 95.6466 54.2158 95.1783 54.4593C94.7382 54.6902 94.2689 54.8748 93.7704 55.013C93.2924 55.159 92.9582 55.2661 92.768 55.3343C92.2977 55.4598 91.8109 55.5673 91.3076 55.6567C90.8247 55.7539 90.333 55.8127 89.8326 55.8328C89.7146 55.8347 89.5683 55.8492 89.3937 55.8764C89.2473 55.891 89.0947 55.8914 88.9357 55.8776C88.7034 56.1174 88.5325 56.3807 88.4231 56.6674C88.3215 56.9336 88.3135 57.2004 88.3992 57.4677C88.3914 57.4882 88.3977 57.5023 88.4182 57.5101ZM90.606 54.5443C90.4567 54.6281 90.2893 54.7284 90.1039 54.8454C89.939 54.9701 89.7702 55.1051 89.5974 55.2504C90.1924 55.2897 90.7982 55.2394 91.4147 55.0993C92.0313 54.9592 92.6069 54.8035 93.1415 54.6322C93.2469 54.602 93.4835 54.5046 93.8513 54.34C94.2396 54.1832 94.5972 54.0147 94.9241 53.8344C95.2792 53.6415 95.5125 53.4607 95.6238 53.292C95.7351 53.1234 95.5703 53.0018 95.1295 52.9274C94.7501 52.8765 94.3575 52.8909 93.9516 52.9706C93.5458 53.0503 93.1448 53.1788 92.7487 53.3561C92.3604 53.5129 91.9847 53.698 91.6218 53.9114C91.2588 54.1248 90.9202 54.3357 90.606 54.5443ZM88.4182 57.5101C88.3977 57.5023 88.3914 57.4882 88.3992 57.4677L88.4182 57.5101Z" fill="white"/>
<rect x="13.4308" y="0.530407" width="3.92101" height="3.92101" transform="rotate(20.89 13.4308 0.530407)" fill="white" stroke="#699AE3" stroke-width="0.821989"/>
<rect x="2.0011" y="30.4812" width="3.92101" height="3.92101" transform="rotate(20.89 2.0011 30.4812)" fill="white" stroke="#699AE3" stroke-width="0.821989"/>
<rect x="94.9952" y="65.9738" width="3.92101" height="3.92101" transform="rotate(20.89 94.9952 65.9738)" fill="white" stroke="#699AE3" stroke-width="0.821989"/>
<rect x="106.429" y="36.0242" width="3.92101" height="3.92101" transform="rotate(20.89 106.429 36.0242)" fill="white" stroke="#699AE3" stroke-width="0.821989"/>
</svg>
