<svg width="138" height="40" viewBox="0 0 138 40" fill="none" xmlns="http://www.w3.org/2000/svg">
<g clip-path="url(#clip0_696_2174)">
<g clip-path="url(#clip1_696_2174)">
<path d="M10.4219 23.2314C19.7889 23.4082 24.8262 25.6173 24.8262 38.4307V40.041H0V23.3193H8.21289C9.00803 23.3193 9.71508 23.3198 10.4219 23.2314ZM40.041 40.041H31.8955V36.751C31.8954 26.8541 28.6261 21.6403 22.7939 19.166C28.0076 15.3662 31.0117 9.18002 31.0117 0.785156C31.0117 0.521322 31.0081 0.259612 31.002 0H40.041V40.041ZM23.9424 0.785156C23.9424 10.7707 17.9334 17.1338 8.21289 17.1338H0V0H23.9277C23.9365 0.259166 23.9424 0.520863 23.9424 0.785156Z" fill="#FFE603"/>
<path d="M23.9434 0.785156C23.9434 10.7706 17.9342 17.1337 8.21387 17.1338H0V0H23.9287C23.9374 0.25916 23.9434 0.520869 23.9434 0.785156Z" fill="#67D15E"/>
<path d="M10.4229 23.2114C19.7897 23.3882 24.827 25.5977 24.8271 38.4106V40.021H0V23.2993H8.21387C9.00907 23.2993 9.71599 23.2998 10.4229 23.2114Z" fill="#00A5D9"/>
</g>
<path d="M18.2332 0C16.325 12.5536 5.98701 11.2764 0 11.4404V0H18.2332Z" fill="#F34463"/>
</g>
<path d="M52.6243 15.1567C53.3299 15.7272 53.8703 16.3952 54.2457 17.1534C54.6135 17.919 54.8086 18.6922 54.8086 19.4728H53.3224C53.3224 18.8423 53.1422 18.2118 52.7894 17.5887C52.4366 16.9657 51.9262 16.4478 51.2656 16.0199C50.9429 15.7872 50.5976 15.6371 50.2373 15.562C49.8019 15.502 49.3215 15.487 48.7885 15.517C48.5408 15.5245 48.2706 15.532 47.9778 15.532L47.9628 19.4728H46.4766L46.4841 10.4577C46.4841 9.76709 46.6267 9.25666 46.9194 8.93389C47.2047 8.60361 47.6851 8.43846 48.3456 8.43846C48.7285 8.43846 49.1038 8.43846 49.4791 8.43846C49.8469 8.43096 50.1622 8.43096 50.4099 8.43096C50.6651 8.43096 50.7852 8.43096 50.7852 8.43096C51.5659 8.43846 52.249 8.57358 52.842 8.84381C53.4425 9.11404 53.9079 9.51938 54.2532 10.0523C54.591 10.5928 54.7636 11.2609 54.7636 12.064C54.7636 12.612 54.6735 13.0849 54.5009 13.4827C54.3207 13.8881 54.073 14.2259 53.7502 14.5036C53.435 14.7738 53.0597 14.9915 52.6243 15.1567ZM50.8228 14.0457C51.2881 14.0157 51.7085 13.9406 52.0763 13.8205C52.4441 13.7004 52.7294 13.4978 52.9471 13.2275C53.1572 12.9498 53.2698 12.567 53.2698 12.064C53.2698 11.5836 53.1798 11.2008 53.0146 10.9006C52.842 10.6078 52.6018 10.3826 52.2865 10.2325C51.9712 10.0749 51.5959 9.97727 51.168 9.92473C51.138 9.92473 50.9954 9.92473 50.7252 9.92473C50.4624 9.92473 50.1547 9.92473 49.8094 9.91722C49.4641 9.91722 49.1563 9.91722 48.8936 9.91722C48.6309 9.91722 48.4958 9.91722 48.4733 9.91722C48.3381 9.93974 48.2255 9.99979 48.1355 10.0974C48.0454 10.195 48.0004 10.3151 48.0004 10.4502C48.0004 10.4502 48.0004 10.6303 48.0004 10.9906C48.0004 11.3509 48.0004 11.7563 48.0004 12.2217C48.0004 12.6871 47.9929 13.0999 47.9929 13.4602C47.9929 13.8205 47.9929 14.0157 48.0004 14.0457C48.5633 14.0457 49.0963 14.0457 49.6067 14.0457C49.9595 14.0457 50.2523 14.0457 50.4775 14.0457C50.6951 14.0457 50.8152 14.0457 50.8228 14.0457ZM59.5869 19.4428L59.6019 11.366H61.0882L61.0807 19.4503L59.5869 19.4428ZM60.3375 9.84216C60.1198 9.84216 59.9322 9.7746 59.7746 9.62447C59.6169 9.48185 59.5419 9.3092 59.5419 9.10653C59.5419 8.89635 59.6169 8.72371 59.7746 8.58109C59.9322 8.43846 60.1198 8.3634 60.3375 8.3634C60.5552 8.3634 60.7429 8.43846 60.9005 8.58109C61.0581 8.72371 61.1332 8.89635 61.1332 9.10653C61.1332 9.3092 61.0581 9.48185 60.9005 9.62447C60.7429 9.7746 60.5552 9.84216 60.3375 9.84216ZM69.6947 14.6688C70.0925 14.7663 70.5054 14.8789 70.9182 15.0065C71.3311 15.1417 71.7064 15.2993 72.0592 15.487C72.4045 15.6821 72.6897 15.9223 72.8999 16.2001C73.1101 16.4853 73.2077 16.8381 73.2002 17.2509C73.1851 17.6188 73.065 17.9716 72.8248 18.3169C72.5921 18.6621 72.2168 18.9399 71.6989 19.1501C71.1809 19.3602 70.4979 19.4653 69.6421 19.4503C68.9666 19.4353 68.3961 19.3452 67.9457 19.1801C67.4878 19.0225 67.12 18.8198 66.8348 18.5946C66.557 18.3619 66.3393 18.1367 66.1892 17.904C66.0466 17.6713 65.9415 17.4761 65.8889 17.3185L65.8139 17.1158L67.3977 16.7405L67.4728 16.9207C67.5253 17.0858 67.6304 17.2434 67.7806 17.4011C67.9382 17.5662 68.1709 17.7013 68.4937 17.8139C68.8164 17.9265 69.2668 17.9866 69.8448 18.0016H69.8598C70.0024 18.0016 70.1976 17.9866 70.4528 17.949C70.7155 17.9115 70.9482 17.844 71.1659 17.7539C71.3836 17.6713 71.5037 17.5512 71.5262 17.4086C71.5412 17.0783 71.3536 16.8231 70.9558 16.6354C70.5654 16.4478 70.0099 16.2676 69.2893 16.095C68.899 15.9899 68.5537 15.8848 68.2685 15.7722C67.9907 15.6521 67.683 15.5095 67.3677 15.3293C66.6171 14.9165 66.2568 14.331 66.2793 13.5953C66.3018 12.9348 66.6171 12.3943 67.2251 11.9665C67.8932 11.5386 68.6738 11.3359 69.5746 11.3509C71.4061 11.396 72.5846 12.1166 73.1026 13.5128L73.1776 13.723L71.5938 14.0983L71.5187 13.9106C71.4662 13.738 71.3686 13.5728 71.2185 13.4077C71.0759 13.2425 70.8281 13.0999 70.4829 12.9873C70.1376 12.8672 69.7998 12.8072 69.4695 12.7997C69.4245 12.7922 69.3794 12.7922 69.3344 12.7922C68.8615 12.7997 68.5162 12.8822 68.291 13.0399C68.0658 13.205 67.9382 13.4002 67.9232 13.6329C67.9382 13.8806 68.0958 14.0758 68.4036 14.2334C68.7113 14.391 69.1392 14.5336 69.6947 14.6688ZM81.9943 11.3735C82.7375 11.3735 83.413 11.5611 84.021 11.9214C84.6366 12.2817 85.117 12.7696 85.4848 13.3852C85.8451 13.9932 86.0253 14.6688 86.0253 15.4119C86.0253 16.155 85.8451 16.8306 85.4848 17.4461C85.117 18.0541 84.6366 18.542 84.021 18.9024C83.413 19.2702 82.7375 19.4503 81.9943 19.4503C81.2512 19.4503 80.5681 19.2702 79.9601 18.9024C79.3521 18.542 78.8642 18.0541 78.5039 17.4461C78.1361 16.8306 77.9559 16.155 77.9559 15.4119C77.9559 14.6688 78.1361 13.9932 78.5039 13.3852C78.8642 12.7696 79.3521 12.2817 79.9601 11.9214C80.5681 11.5611 81.2512 11.3735 81.9943 11.3735ZM81.9943 17.9641C82.6924 17.9641 83.2929 17.7088 83.7959 17.2134C84.2913 16.718 84.539 16.1175 84.539 15.4119C84.539 14.7138 84.2913 14.1133 83.7959 13.6104C83.2929 13.1149 82.6924 12.8672 81.9943 12.8672C81.2887 12.8672 80.6882 13.1149 80.1928 13.6104C79.6899 14.1133 79.4422 14.7138 79.4422 15.4119C79.4422 16.1175 79.6899 16.718 80.1928 17.2134C80.6882 17.7088 81.2887 17.9641 81.9943 17.9641ZM90.7735 19.4503C90.766 13.3702 90.766 10.0223 90.7735 9.41429C90.781 8.78376 90.781 8.43846 90.7885 8.38592H92.2973L92.3123 19.4503H90.7735ZM104.664 11.381L104.672 15.6446C104.672 16.0124 104.589 16.4102 104.417 16.8531C104.252 17.2885 103.989 17.7088 103.644 18.1067C103.298 18.497 102.855 18.8273 102.322 19.075C101.782 19.3302 101.151 19.4578 100.416 19.4653C99.7703 19.4578 99.1548 19.2777 98.5768 18.9249C97.9988 18.5721 97.5334 18.1067 97.1656 17.5212C96.7978 16.9282 96.6101 16.2751 96.6026 15.562L96.5951 11.381H98.0739C98.0739 11.381 98.0814 11.5086 98.0814 11.7638C98.0889 12.019 98.0889 12.3343 98.0964 12.7021C98.0964 13.0774 98.0964 13.4527 98.0964 13.8355C98.0964 14.2109 98.0889 14.5411 98.0814 14.8114C98.0664 15.5395 98.1865 16.1325 98.4342 16.6054C98.6819 17.0708 98.9972 17.4161 99.395 17.6413C99.7853 17.8665 100.191 17.9716 100.619 17.9641C101.054 17.9565 101.474 17.8515 101.88 17.6413C102.285 17.4386 102.608 17.1083 102.863 16.6655C103.111 16.2226 103.223 15.6446 103.186 14.9315V11.381H104.664ZM114.044 19.4353C114.007 19.4353 113.969 19.4353 113.932 19.4353C113.376 19.4353 112.903 19.4053 112.505 19.3377C112.115 19.2702 111.725 19.1125 111.342 18.8648C110.959 18.6246 110.696 18.2268 110.569 17.6788C110.456 17.1534 110.404 16.3427 110.396 15.2392C110.396 14.1358 110.404 13.3401 110.419 12.8597H109.405V11.366H110.404C110.396 10.3451 110.396 9.34674 110.404 8.37841H111.912L111.92 11.366H113.586V12.8597H111.927C111.905 14.0758 111.905 15.4044 111.927 16.8456C111.935 17.6488 112.64 18.0091 114.044 17.949V19.4353ZM122.44 11.3735C123.184 11.3735 123.859 11.5611 124.467 11.9214C125.083 12.2817 125.563 12.7696 125.931 13.3852C126.291 13.9932 126.471 14.6688 126.471 15.4119C126.471 16.155 126.291 16.8306 125.931 17.4461C125.563 18.0541 125.083 18.542 124.467 18.9024C123.859 19.2702 123.184 19.4503 122.44 19.4503C121.697 19.4503 121.014 19.2702 120.406 18.9024C119.798 18.542 119.31 18.0541 118.95 17.4461C118.582 16.8306 118.402 16.155 118.402 15.4119C118.402 14.6688 118.582 13.9932 118.95 13.3852C119.31 12.7696 119.798 12.2817 120.406 11.9214C121.014 11.5611 121.697 11.3735 122.44 11.3735ZM122.44 17.9641C123.139 17.9641 123.739 17.7088 124.242 17.2134C124.737 16.718 124.985 16.1175 124.985 15.4119C124.985 14.7138 124.737 14.1133 124.242 13.6104C123.739 13.1149 123.139 12.8672 122.44 12.8672C121.735 12.8672 121.134 13.1149 120.639 13.6104C120.136 14.1133 119.888 14.7138 119.888 15.4119C119.888 16.1175 120.136 16.718 120.639 17.2134C121.134 17.7088 121.735 17.9641 122.44 17.9641ZM132.713 11.974C133.186 11.7037 133.727 11.5311 134.35 11.456C134.973 11.381 135.641 11.3434 136.354 11.3434V12.7847C135.498 12.7771 134.808 12.8222 134.275 12.9123C133.749 13.0023 133.359 13.2125 133.111 13.5353C132.856 13.8656 132.728 14.376 132.721 15.0741L132.706 18.0016V19.4653H131.212V19.4278V15.3819C131.212 15.2543 131.212 15.1342 131.22 15.0216L131.227 11.381H132.713V11.974Z" fill="white"/>
<path d="M50.5125 26.7367L50.516 27.428L48.8507 27.4315L48.8332 31.8725H48.1524L48.1594 27.4315H48.1559L46.4766 27.435V26.7367H50.5125ZM57.5402 30.1338H56.8454L54.4888 30.1303C54.5307 30.4306 54.6563 30.6819 54.8728 30.8775C55.0928 31.073 55.3546 31.1777 55.6688 31.1847C55.8888 31.1812 56.1297 31.1393 56.3846 31.059C56.6429 30.9822 56.8489 30.8809 57.013 30.7657H57.0165L57.3901 31.3139C57.0828 31.5268 56.793 31.6735 56.5242 31.7573C56.2554 31.8411 55.9691 31.8795 55.6653 31.876C55.1591 31.8655 54.7297 31.6944 54.384 31.3662C54.0349 31.0415 53.8394 30.6261 53.794 30.1268C53.7905 30.0849 53.7905 30.043 53.7905 29.9976C53.7905 29.7986 53.8219 29.6136 53.8778 29.432C54.0035 29.0445 54.2269 28.7338 54.5481 28.4929C54.8693 28.252 55.2429 28.1298 55.6688 28.1228C56.0948 28.1298 56.4684 28.252 56.7896 28.4929C57.1073 28.7338 57.3307 29.048 57.4599 29.4355C57.5158 29.6136 57.5437 29.8021 57.5437 30.0011C57.5437 30.043 57.5437 30.0884 57.5402 30.1338ZM54.7017 29.3657L56.7826 29.3692C56.6813 29.1807 56.5382 29.0305 56.3566 28.9188C56.1751 28.8071 55.9691 28.7512 55.7422 28.7477C55.5152 28.7477 55.3092 28.8071 55.1277 28.9188C54.9461 29.0305 54.803 29.1807 54.7017 29.3657ZM64.8821 30.8705C64.9135 30.8425 64.9449 30.8111 64.9693 30.7797L65.4581 31.272C65.4232 31.3104 65.3848 31.3488 65.3464 31.3837C64.9728 31.7084 64.5539 31.869 64.086 31.869C63.8207 31.869 63.5693 31.8166 63.3249 31.7084C63.084 31.6037 62.8745 31.45 62.693 31.251C62.3508 30.867 62.1902 30.4131 62.2077 29.8999C62.2391 29.3832 62.4451 28.9502 62.8257 28.5976C63.1818 28.2834 63.6007 28.1193 64.0756 28.1123H64.086C64.3479 28.1123 64.6027 28.1682 64.8437 28.2729C65.0846 28.3811 65.2975 28.5348 65.4791 28.7303C65.4965 28.7512 65.514 28.7687 65.528 28.7896L65.0392 29.2819H65.0357C65.0147 29.254 64.9903 29.2226 64.9658 29.1946C64.7145 28.9363 64.4212 28.8071 64.086 28.8071H64.079C63.7788 28.8106 63.5135 28.9118 63.29 29.1108C63.0456 29.3448 62.9164 29.6171 62.9025 29.9348C62.885 30.249 62.9863 30.5353 63.2062 30.7867C63.4576 31.0485 63.7509 31.1777 64.086 31.1777C64.3793 31.1777 64.6446 31.0765 64.8821 30.8705ZM73.589 29.247C73.6798 29.453 73.7322 29.6764 73.7461 29.9138V31.876H73.0583V29.9383H73.0549C73.0339 29.6729 72.9431 29.4425 72.779 29.247C72.6743 29.1178 72.5556 29.0131 72.4264 28.9363C72.2972 28.8595 72.1436 28.8211 71.9586 28.8211C71.777 28.8211 71.6199 28.8595 71.4907 28.9363C71.3616 29.0131 71.2463 29.1178 71.1381 29.247C70.9775 29.4425 70.8832 29.6729 70.8658 29.9383L70.8588 31.876H70.164V26.7332H70.8553L70.8623 28.5522C71.0229 28.4196 71.187 28.3148 71.3616 28.2415C71.5361 28.1682 71.7351 28.1298 71.9586 28.1298C72.2134 28.1298 72.4474 28.1787 72.6568 28.2729C72.8663 28.3672 73.0479 28.4999 73.205 28.6674C73.3621 28.835 73.4913 29.027 73.589 29.247ZM80.1558 28.1123C80.498 28.1158 80.7912 28.1787 81.0426 28.2939C81.2905 28.4126 81.4965 28.5627 81.6571 28.7477C81.8177 28.9328 81.9399 29.1248 82.0167 29.3308C82.097 29.5333 82.1354 29.7218 82.1354 29.8929L82.1319 31.876H81.4441V30.2246C81.4616 29.8929 81.4092 29.6241 81.294 29.4181C81.1753 29.2121 81.0252 29.0585 80.8366 28.9607C80.6481 28.8664 80.4526 28.8141 80.2501 28.8141C79.9708 28.8071 79.7159 28.9048 79.4855 29.1073C79.2516 29.3133 79.1154 29.6276 79.0735 30.0605V30.4341C79.077 30.5912 79.077 30.7622 79.077 30.9508C79.077 31.1428 79.0735 31.3174 79.0735 31.4745V31.876H79.0665H78.3787V31.8725V31.8655L78.3822 29.9313C78.3822 29.9138 78.3822 29.8999 78.3822 29.8824L78.3857 28.1123L79.077 28.1158V28.5243C79.4017 28.259 79.7613 28.1228 80.1558 28.1123ZM88.6463 28.1193C88.992 28.1193 89.3062 28.2066 89.589 28.3742C89.8753 28.5417 90.0987 28.7687 90.2698 29.055C90.4374 29.3378 90.5212 29.652 90.5212 29.9976C90.5212 30.3433 90.4374 30.6575 90.2698 30.9438C90.0987 31.2266 89.8753 31.4535 89.589 31.6211C89.3062 31.7922 88.992 31.876 88.6463 31.876C88.3007 31.876 87.983 31.7922 87.7002 31.6211C87.4174 31.4535 87.1904 31.2266 87.0229 30.9438C86.8518 30.6575 86.768 30.3433 86.768 29.9976C86.768 29.652 86.8518 29.3378 87.0229 29.055C87.1904 28.7687 87.4174 28.5417 87.7002 28.3742C87.983 28.2066 88.3007 28.1193 88.6463 28.1193ZM88.6463 31.1847C88.971 31.1847 89.2503 31.066 89.4843 30.8356C89.7147 30.6051 89.8299 30.3258 89.8299 29.9976C89.8299 29.6729 89.7147 29.3936 89.4843 29.1597C89.2503 28.9293 88.971 28.8141 88.6463 28.8141C88.3181 28.8141 88.0388 28.9293 87.8084 29.1597C87.5745 29.3936 87.4593 29.6729 87.4593 29.9976C87.4593 30.3258 87.5745 30.6051 87.8084 30.8356C88.0388 31.066 88.3181 31.1847 88.6463 31.1847ZM95.1607 31.876C95.1573 29.048 95.1573 27.4909 95.1607 27.2081C95.1642 26.9148 95.1642 26.7542 95.1677 26.7297H95.8695L95.8765 31.876H95.1607ZM102.178 28.1193C102.524 28.1193 102.838 28.2066 103.121 28.3742C103.407 28.5417 103.63 28.7687 103.801 29.055C103.969 29.3378 104.053 29.652 104.053 29.9976C104.053 30.3433 103.969 30.6575 103.801 30.9438C103.63 31.2266 103.407 31.4535 103.121 31.6211C102.838 31.7922 102.524 31.876 102.178 31.876C101.832 31.876 101.515 31.7922 101.232 31.6211C100.949 31.4535 100.722 31.2266 100.554 30.9438C100.383 30.6575 100.3 30.3433 100.3 29.9976C100.3 29.652 100.383 29.3378 100.554 29.055C100.722 28.7687 100.949 28.5417 101.232 28.3742C101.515 28.2066 101.832 28.1193 102.178 28.1193ZM102.178 31.1847C102.503 31.1847 102.782 31.066 103.016 30.8356C103.246 30.6051 103.361 30.3258 103.361 29.9976C103.361 29.6729 103.246 29.3936 103.016 29.1597C102.782 28.9293 102.503 28.8141 102.178 28.8141C101.85 28.8141 101.57 28.9293 101.34 29.1597C101.106 29.3936 100.991 29.6729 100.991 29.9976C100.991 30.3258 101.106 30.6051 101.34 30.8356C101.57 31.066 101.85 31.1847 102.178 31.1847ZM112.39 28.1123C112.39 28.1368 112.393 28.2974 112.393 28.5941C112.393 28.8909 112.397 29.254 112.397 29.6764C112.397 30.0989 112.393 30.5109 112.39 30.9124C112.386 31.3139 112.379 31.6316 112.369 31.8655C112.334 32.4486 112.18 32.8885 111.915 33.1887C111.646 33.489 111.325 33.681 110.944 33.7648C110.564 33.8486 110.183 33.8556 109.806 33.7822C109.429 33.7124 109.115 33.5937 108.86 33.4331L109.15 32.7104C109.293 32.8256 109.502 32.9164 109.771 32.9862C110.04 33.056 110.316 33.077 110.602 33.0491C110.892 33.0211 111.133 32.9129 111.332 32.7279C111.531 32.5428 111.632 32.253 111.639 31.8585C111.639 31.8585 111.639 31.7643 111.643 31.5757C111.643 31.5478 111.643 31.5199 111.643 31.4884C111.482 31.6106 111.307 31.7084 111.112 31.7747C110.916 31.8446 110.71 31.8795 110.497 31.8795C110.152 31.8795 109.834 31.7957 109.551 31.6246C109.268 31.457 109.041 31.2301 108.874 30.9473C108.703 30.661 108.619 30.3468 108.619 30.0011C108.619 29.6555 108.703 29.3413 108.874 29.0585C109.041 28.7722 109.268 28.5487 109.551 28.3777C109.834 28.2101 110.152 28.1263 110.497 28.1263C110.721 28.1263 110.934 28.1612 111.136 28.238C111.335 28.3113 111.517 28.4126 111.681 28.5452C111.684 28.252 111.688 28.1053 111.688 28.1053L112.39 28.1123ZM111.66 30.2281C111.66 30.0884 111.663 29.9488 111.663 29.8056C111.611 29.5193 111.478 29.2819 111.262 29.0969C111.045 28.9118 110.791 28.8176 110.497 28.8176C110.169 28.8176 109.89 28.9328 109.659 29.1632C109.426 29.3971 109.31 29.6764 109.31 30.0011C109.31 30.3293 109.426 30.6086 109.659 30.839C109.89 31.073 110.169 31.1882 110.497 31.1882C110.784 31.1882 111.035 31.0974 111.248 30.9159C111.464 30.7378 111.601 30.5074 111.66 30.2281ZM117.05 31.8725L117.057 28.1158H117.748L117.745 31.876L117.05 31.8725ZM117.399 27.4071C117.298 27.4071 117.211 27.3756 117.137 27.3058C117.064 27.2395 117.029 27.1592 117.029 27.0649C117.029 26.9672 117.064 26.8869 117.137 26.8205C117.211 26.7542 117.298 26.7193 117.399 26.7193C117.501 26.7193 117.588 26.7542 117.661 26.8205C117.734 26.8869 117.769 26.9672 117.769 27.0649C117.769 27.1592 117.734 27.2395 117.661 27.3058C117.588 27.3756 117.501 27.4071 117.399 27.4071ZM126.152 30.1338H125.457L123.1 30.1303C123.142 30.4306 123.268 30.6819 123.484 30.8775C123.704 31.073 123.966 31.1777 124.28 31.1847C124.5 31.1812 124.741 31.1393 124.996 31.059C125.254 30.9822 125.46 30.8809 125.624 30.7657H125.628L126.002 31.3139C125.694 31.5268 125.405 31.6735 125.136 31.7573C124.867 31.8411 124.581 31.8795 124.277 31.876C123.771 31.8655 123.341 31.6944 122.996 31.3662C122.646 31.0415 122.451 30.6261 122.405 30.1268C122.402 30.0849 122.402 30.043 122.402 29.9976C122.402 29.7986 122.433 29.6136 122.489 29.432C122.615 29.0445 122.838 28.7338 123.16 28.4929C123.481 28.252 123.854 28.1298 124.28 28.1228C124.706 28.1298 125.08 28.252 125.401 28.4929C125.719 28.7338 125.942 29.048 126.071 29.4355C126.127 29.6136 126.155 29.8021 126.155 30.0011C126.155 30.043 126.155 30.0884 126.152 30.1338ZM123.313 29.3657L125.394 29.3692C125.293 29.1807 125.15 29.0305 124.968 28.9188C124.787 28.8071 124.581 28.7512 124.354 28.7477C124.127 28.7477 123.921 28.8071 123.739 28.9188C123.558 29.0305 123.414 29.1807 123.313 29.3657ZM132.572 29.652C132.757 29.6974 132.949 29.7498 133.141 29.8091C133.333 29.8719 133.508 29.9453 133.672 30.0326C133.832 30.1233 133.965 30.235 134.063 30.3642C134.16 30.4969 134.206 30.661 134.202 30.853C134.195 31.0241 134.139 31.1882 134.028 31.3488C133.919 31.5094 133.745 31.6386 133.504 31.7363C133.263 31.8341 132.945 31.883 132.547 31.876C132.233 31.869 131.968 31.8271 131.758 31.7503C131.545 31.677 131.374 31.5827 131.242 31.478C131.112 31.3697 131.011 31.265 130.941 31.1568C130.875 31.0485 130.826 30.9578 130.802 30.8844L130.767 30.7902L131.503 30.6156L131.538 30.6994C131.563 30.7762 131.612 30.8495 131.682 30.9228C131.755 30.9997 131.863 31.0625 132.013 31.1149C132.163 31.1672 132.373 31.1952 132.642 31.2021H132.649C132.715 31.2021 132.806 31.1952 132.924 31.1777C133.047 31.1603 133.155 31.1288 133.256 31.0869C133.357 31.0485 133.413 30.9927 133.424 30.9263C133.431 30.7727 133.343 30.654 133.158 30.5667C132.977 30.4794 132.718 30.3956 132.383 30.3153C132.202 30.2665 132.041 30.2176 131.908 30.1652C131.779 30.1094 131.636 30.043 131.49 29.9592C131.14 29.7672 130.973 29.4949 130.983 29.1527C130.994 28.8455 131.14 28.5941 131.423 28.3951C131.734 28.1961 132.097 28.1018 132.516 28.1088C133.368 28.1298 133.916 28.4649 134.157 29.1143L134.192 29.2121L133.455 29.3867L133.42 29.2994C133.396 29.2191 133.35 29.1423 133.281 29.0654C133.214 28.9886 133.099 28.9223 132.938 28.8699C132.778 28.8141 132.621 28.7861 132.467 28.7827C132.446 28.7792 132.425 28.7792 132.404 28.7792C132.184 28.7827 132.024 28.8211 131.919 28.8944C131.814 28.9712 131.755 29.062 131.748 29.1702C131.755 29.2854 131.828 29.3762 131.971 29.4495C132.114 29.5228 132.313 29.5892 132.572 29.652Z" fill="white"/>
<defs>
<clipPath id="clip0_696_2174">
<rect width="39.3264" height="39.3264" rx="19.6632" fill="white"/>
</clipPath>
<clipPath id="clip1_696_2174">
<rect width="39.3264" height="39.3264" fill="white"/>
</clipPath>
</defs>
</svg>
