<svg width="215" height="186" viewBox="0 0 215 186" fill="none" xmlns="http://www.w3.org/2000/svg">
<g opacity="0.57">
<g clip-path="url(#clip0_329_1971)">
<path d="M6.18668 56.0919C4.42673 48.0589 9.51203 40.1201 17.545 38.3602L167.571 5.49082C175.604 3.73086 183.543 8.81617 185.303 16.8492L210.191 130.445C211.951 138.478 206.865 146.417 198.832 148.177L48.8062 181.046C40.7732 182.806 32.8344 177.721 31.0745 169.688L6.18668 56.0919Z" fill="url(#paint0_linear_329_1971)"/>
<g opacity="0.64">
<mask id="mask0_329_1971" style="mask-type:luminance" maskUnits="userSpaceOnUse" x="-63" y="-87" width="753" height="620">
<path d="M585.404 -86.0524L-62.4521 55.8871L42.0155 532.711L689.872 390.771L585.404 -86.0524Z" fill="white"/>
</mask>
<g mask="url(#mask0_329_1971)">
<path d="M752.666 442.519L6.6089 605.974L-125.247 4.14124L620.81 -159.313L752.666 442.519ZM7.30116 604.521L751.43 441.489L620.118 -157.86L-124.011 5.17171L7.30116 604.521Z" fill="#A7A7A7"/>
<path d="M692.699 171.116L-52.3936 334.359L-52.1215 335.601L692.971 172.358L692.699 171.116Z" fill="#A7A7A7"/>
<path d="M686.12 141.087L-58.9727 304.33L-58.7006 305.572L686.392 142.329L686.12 141.087Z" fill="#A7A7A7"/>
<path d="M679.541 111.058L-65.5522 274.301L-65.2802 275.543L679.813 112.3L679.541 111.058Z" fill="#A7A7A7"/>
<path d="M672.961 81.0274L-72.1313 244.27L-71.8593 245.512L673.233 82.2691L672.961 81.0274Z" fill="#A7A7A7"/>
<path d="M666.382 50.996L-78.7109 214.239L-78.4389 215.481L666.654 52.2377L666.382 50.996Z" fill="#A7A7A7"/>
<path d="M659.803 20.9688L-85.2896 184.212L-85.0175 185.454L660.075 22.2105L659.803 20.9688Z" fill="#A7A7A7"/>
<path d="M653.224 -9.06076L-91.8691 154.182L-91.5971 155.424L653.496 -7.81902L653.224 -9.06076Z" fill="#A7A7A7"/>
<path d="M646.644 -39.0897L-98.4487 124.153L-98.1767 125.395L646.916 -37.8479L646.644 -39.0897Z" fill="#A7A7A7"/>
<path d="M640.066 -69.12L-105.027 94.123L-104.755 95.3648L640.338 -67.8782L640.066 -69.12Z" fill="#A7A7A7"/>
<path d="M633.486 -99.1489L-111.606 64.0941L-111.334 65.3359L633.758 -97.9072L633.486 -99.1489Z" fill="#A7A7A7"/>
<path d="M626.906 -129.179L-118.187 34.0642L-117.914 35.3059L627.178 -127.937L626.906 -129.179Z" fill="#A7A7A7"/>
<path d="M191.954 -64.704L190.99 -64.4928L322.574 536.098L323.538 535.886L191.954 -64.704Z" fill="#A7A7A7"/>
<path d="M169.375 -59.7579L168.411 -59.5466L299.994 541.044L300.959 540.832L169.375 -59.7579Z" fill="#A7A7A7"/>
<path d="M146.796 -54.8108L145.832 -54.5996L277.415 545.991L278.379 545.779L146.796 -54.8108Z" fill="#A7A7A7"/>
<path d="M124.217 -49.8639L123.253 -49.6527L254.837 550.938L255.801 550.726L124.217 -49.8639Z" fill="#A7A7A7"/>
<path d="M101.639 -44.9172L100.675 -44.7059L232.259 555.884L233.223 555.673L101.639 -44.9172Z" fill="#A7A7A7"/>
<path d="M79.0603 -39.9701L78.0962 -39.7589L209.68 560.831L210.644 560.62L79.0603 -39.9701Z" fill="#A7A7A7"/>
<path d="M56.4821 -35.0237L55.5181 -34.8125L187.102 565.778L188.066 565.567L56.4821 -35.0237Z" fill="#A7A7A7"/>
<path d="M33.9031 -30.0774L32.939 -29.8662L164.523 570.724L165.487 570.513L33.9031 -30.0774Z" fill="#A7A7A7"/>
<path d="M11.3244 -25.1303L10.3604 -24.9191L141.944 575.671L142.908 575.46L11.3244 -25.1303Z" fill="#A7A7A7"/>
<path d="M-11.2537 -20.1831L-12.2178 -19.9719L119.366 580.618L120.33 580.407L-11.2537 -20.1831Z" fill="#A7A7A7"/>
<path d="M-33.8323 -15.2369L-34.7964 -15.0256L96.7875 585.565L97.7515 585.353L-33.8323 -15.2369Z" fill="#A7A7A7"/>
<path d="M-56.4119 -10.2898L-57.376 -10.0786L74.2079 590.512L75.1719 590.3L-56.4119 -10.2898Z" fill="#A7A7A7"/>
<path d="M-78.99 -5.34342L-79.9541 -5.1322L51.6297 595.458L52.5938 595.247L-78.99 -5.34342Z" fill="#A7A7A7"/>
<path d="M-101.569 -0.396158L-102.533 -0.184937L29.0511 600.405L30.0152 600.194L-101.569 -0.396158Z" fill="#A7A7A7"/>
</g>
</g>
</g>
<path d="M17.6278 38.7399L167.654 5.87051C175.478 4.1565 183.209 9.10868 184.924 16.9319L209.812 130.528C211.525 138.352 206.572 146.083 198.749 147.797L48.7227 180.667C40.8995 182.38 33.1685 177.428 31.4542 169.605L6.56627 56.0084C4.85249 48.1852 9.80476 40.4541 17.6278 38.7399Z" stroke="black" stroke-width="0.776969"/>
</g>
<line x1="182.591" y1="5.78001" x2="212.272" y2="141.256" stroke="#699AE3" stroke-width="0.992669"/>
<line x1="34.6174" y1="184.044" x2="212.216" y2="145.134" stroke="#699AE3" stroke-width="0.992669"/>
<line x1="3.06028" y1="41.821" x2="181.418" y2="2.74451" stroke="#699AE3" stroke-width="0.992669"/>
<line x1="3.48483" y1="41.4407" x2="34.4966" y2="182.988" stroke="#699AE3" stroke-width="0.992669"/>
<circle cx="212.075" cy="144.082" r="2.48783" transform="rotate(-12.3577 212.075 144.082)" fill="white" stroke="#699AE3" stroke-width="0.776969"/>
<circle cx="181.229" cy="3.29383" r="2.48783" transform="rotate(-12.3577 181.229 3.29383)" fill="white" stroke="#699AE3" stroke-width="0.776969"/>
<circle cx="2.99995" cy="41.5472" r="2.48783" transform="rotate(-12.3577 2.99995 41.5472)" fill="white" stroke="#699AE3" stroke-width="0.776969"/>
<circle cx="34.3632" cy="183.018" r="2.48783" transform="rotate(-12.3577 34.3632 183.018)" fill="white" stroke="#699AE3" stroke-width="0.776969"/>
<defs>
<linearGradient id="paint0_linear_329_1971" x1="151.971" y1="39.4307" x2="8.74999" y2="175.286" gradientUnits="userSpaceOnUse">
<stop stop-color="white" stop-opacity="0"/>
<stop offset="1" stop-color="#6BDC3B"/>
</linearGradient>
<clipPath id="clip0_329_1971">
<path d="M6.18668 56.0919C4.42673 48.0589 9.51203 40.1201 17.545 38.3602L167.571 5.49082C175.604 3.73086 183.543 8.81617 185.303 16.8492L210.191 130.445C211.951 138.478 206.865 146.417 198.832 148.177L48.8062 181.046C40.7732 182.806 32.8344 177.721 31.0745 169.688L6.18668 56.0919Z" fill="white"/>
</clipPath>
</defs>
</svg>
